<svg fill="#896132" xmlns="http://www.w3.org/2000/svg" height="273" width="258" version="1.1" viewBox="0 0 273 258">
	<path d="m188.3 196.76c-0.85928 1.7058-0.93117 3.7397-0.13292 5.8186 0.7924 2.0636 2.3782 4.0047 4.5054 5.5491 4.3223 3.1382 9.9292 4.0715 14.904 3.3769 1.4588-0.20413 2.8395-0.53746 4.1343-0.96458 2.9097-1.0533 5.2702-2.5372 7.2231-4.0888 0.55413-0.44028 1.0673-0.89144 1.5683-1.3431-0.12707 0.75581-0.17318 1.5261-0.0479 2.291 0.32577 1.9903 1.6222 3.6963 3.7083 4.8257 2.0659 1.1185 4.714 1.5691 7.4611 1.3371 2.7373-0.23108 5.383-1.115 7.6892-2.4314 0.20665-0.11798 0.41009-0.23906 0.61025-0.36309 1.9559-1.1729 3.6178-2.6099 4.9774-4.1549 2.9808-3.3874 4.4243-7.1377 5.2273-10.539 0.089-0.37694 0.15226-0.74436 0.22786-1.1157 1.037 0.52932 2.2221 0.82332 3.5057 0.81238 1.9884-0.017 4.0512-0.69431 5.9352-1.8586 3.7941-2.3446 6.2825-6.2225 7.4204-10.027 1.1156-3.7299 0.97107-7.2205 0.46163-10.236-0.26001-1.5392-0.61807-2.993-0.9893-4.369-0.38468-1.2871-0.76463-2.4809-1.1024-3.6878-1.8362-6.5613-5.5051-15.325-4.9978-21.198 0.33765-2.1067 0.57919-4.229 0.72247-6.3584l11.378 0.76609c0.12638-1.8829 0.18724-3.7722 0.18166-5.6643l-11.405 0.0396c-0.005-1.53-0.0616-3.0604-0.17004-4.5883l5.9197-0.42264c-0.0305-0.43409-0.0648-0.86807-0.10296-1.3019-0.1226-1.3181-0.27757-2.6297-0.46377-3.934l-5.8708 0.82888c-0.0787-0.55512-0.16363-1.1091-0.25481-1.6618-1.6591-10.058-5.3714-19.712-10.471-28.462-6.1471-10.563-14.236-19.918-23.539-27.763l-0.00001-0.00001c-9.18-7.773-19.62-14.122-30.9-18.435l-0.00001-0.00001c-20.179-7.7063-42.289-10.254-63.683-7.1941-16.689 2.3999-32.788 8.025-47.595 15.99 2.0316-4.4281 4.3214-8.8334 6.886-13.185-1.4459-0.81516-2.9102-1.6124-4.3923-2.3912-3.7385 6.4526-6.8929 13.013-9.5138 19.585-1.154 0.69794-2.299 1.41-3.4345 2.1359-2.9548 1.8877-5.8494 3.8658-8.6812 5.9286 1.2708-4.2058 2.7336-8.4212 4.3988-12.635 0.17729-0.44837 0.35695-0.89671 0.53901-1.345-0.61515-0.24018-1.2325-0.47726-1.8521-0.71117-0.93168-0.35322-1.8683-0.69971-2.8098-1.0394-2.7412 6.8878-4.9552 13.78-6.6846 20.628-3.7832 3.0302-7.4423 6.2145-10.97 9.5381 0.80771-4.7924 1.8347-9.622 3.095-14.473-1.6022-0.40122-3.2154-0.78351-4.8393-1.1468-1.8144 7.1574-3.1348 14.265-4.0037 21.276-3.3803 3.4735-6.6255 7.0781-9.7289 10.799 0.22617-4.8537 0.65586-9.7698 1.303-14.733-1.6376-0.20475-3.2833-0.3903-4.9368-0.55655-0.91258 7.3139-1.3643 14.525-1.3978 21.585l-0.01775 0.0234c-1.4746 1.9256-2.9136 3.8793-4.3154 5.8597-1.8248-4.264-3.5258-8.6223-5.0979-13.066-1.6508-4.66-3.1609-9.419-4.5207-14.27-1.0892 2.8178-2.1082 5.6412-3.0584 8.4672-7.9753 23.541-11.305 47.508-10.022 69.875 13.976-17.509 30.703-30.985 48.167-40.672 2.0984-1.156 4.2068-2.2556 6.3219-3.2978-4.5644-0.99092-9.2022-1.827-13.902-2.5054-4.4815-0.64456-9.0216-1.1482-13.612-1.5051 1.3635-1.9269 2.7632-3.8282 4.1976-5.7024 2.3386-3.0536 4.7707-6.0369 7.2926-8.9419 6.595-1.2947 13.129-2.1736 19.544-2.6381-0.3194-1.5428-0.62007-3.0948-0.9016-4.6556-4.4106 0.30267-8.8768 0.79734-13.38 1.4846 3.2376-3.4248 6.6062-6.7238 10.099-9.8822 6.6969-0.48847 13.275-0.55283 19.675-0.19476-0.12712-1.5668-0.23346-3.1408-0.31858-4.7215-4.4013-0.26447-8.885-0.33325-13.433-0.20581 3.6272-2.9972 7.3745-5.8456 11.235-8.5305 2.7579 0.15182 5.4858 0.37689 8.1795 0.67511 3.8482 0.43033 7.6255 1.0129 11.313 1.7426 0.07745-1.5672 0.17824-3.1395 0.30291-4.7163-4.3108-0.87163-8.7434-1.5458-13.268-2.0147 3.9835-2.4964 8.0798-4.8192 12.272-6.9468 6.5866 1.2929 12.909 3.0268 18.873 5.1763 0.29815-1.5363 0.62223-3.0736 0.97277-4.6114-4.1045-1.503-8.3758-2.8128-12.785-3.9216 11.35-5.035 23.304-8.6238 35.548-10.371 20.487-2.9392 41.727-0.4883 61.072 6.9023h0.00002c10.686 4.0773 20.622 10.129 29.403 17.533l0.00001 0.00001c8.8748 7.4947 16.58 16.394 22.389 26.393 4.7999 8.2743 8.3013 17.334 9.8378 26.68 0.0844 0.51361 0.16294 1.0281 0.2354 1.5433l-11.286 1.5935c0.12808 0.93083 0.23037 1.8617 0.30574 2.7917 0.0278 0.2991 0.0528 0.59865 0.075 0.89858l11.38-0.8125c0.10116 1.4087 0.15388 2.8209 0.15895 4.2336l-5.9323 0.0206c0.005 1.3561-0.0383 2.7139-0.12983 4.0699l4.6431 0.31262c-2.4313 4.2929-7.0669 7.1855-11.081 9.0657-1.8626 0.87229-4.057 1.4867-6.2363 2.1042-2.1839 0.61882-4.4543 1.2705-6.2278 2.2657-0.42033 0.23586-0.81413 0.49439-1.1699 0.77592-1.0861 0.7332-1.7541 1.6967-1.7402 3.1612 0.009 0.95037 0.31344 2.1131 0.96296 3.3986 0.4205 0.83224 1.0002 1.7046 1.6966 2.5424-0.26228-0.0339-0.5615-0.0851-0.82352-0.12113-2.4478-0.33635-5.0268-0.76552-7.0332-0.67192-1.0327 0.0481-1.953 0.23492-2.6916 0.66813-0.74425 0.43658-1.3014 1.1222-1.6359 2.1537-0.33185 1.0233-0.44513 2.4153-0.26568 4.0624 0.0811 0.7447 0.22394 1.5426 0.43435 2.3502 0.27012 0.97878 0.64415 2.0098 1.1433 2.9981 0.35247 0.69703 0.75491 1.3281 1.1995 1.9172-0.40654-0.18766-0.82061-0.39575-1.2181-0.59414-1.9778-0.98701-4.0116-2.1691-5.4905-2.7631-1.445-0.58013-2.4818-0.67498-3.4268 0.1666-0.0872 0.10292-0.17776 0.21779-0.27253 0.34537-0.46535 0.6257-1.1194 1.6953-1.7859 2.9817-0.66518 1.2838-1.4608 3.0134-1.9355 4.7941-0.50428 1.8919-0.62338 3.7378-0.23634 5.4523 0.38069 1.6866 1.2174 3.0825 2.3623 4.1547 0.56373 0.52795 1.1856 0.96428 1.8465 1.3201-1.4309 0.20735-2.8946 0.34547-4.3792 0.43349-2.718 0.16116-5.8335 0.11281-9.1897 0.73754-1.6842 0.31353-3.5229 0.821-5.1874 1.6605-1.6795 0.84697-3.2634 2.0768-4.133 3.8029 0 0 0.00003-0.00007 0.00003-0.00007zm5.4261 2.5401c0.29098-0.856 1.0036-1.6371 1.906-2.2067 0.90991-0.57438 2.0723-0.99006 3.2832-1.257 2.4056-0.53034 5.2824-0.52583 8.1605-0.69842 1.4931-0.0896 2.9735-0.22868 4.4347-0.41928 5.6611-0.77448 11.255-2.2234 16.555-4.0273-1.9755 1.9372-4.1689 4.0273-6.2232 6.1492-2.2171 2.2902-4.4721 4.6148-7.0474 6.4673-0.98795 0.71065-2.037 1.3607-3.1511 1.9233-1.8543 0.88176-3.8393 1.5002-5.9003 1.7366-3.3344 0.38239-6.7829-0.32244-9.1922-1.9598-1.1825-0.80371-2.0769-1.8072-2.5586-2.8201-0.47731-1.0036-0.55103-2.0508-0.26659-2.8877zm16.066-19.374c0.10152-0.86343 0.38232-1.7874 0.70285-2.5084 0.23243-0.52285 0.50606-0.99377 0.77865-1.3636 0.11943-0.14234 0.2425-0.2705 0.36822-0.38236 0.87261-0.77573 1.9708-0.8175 3.3076-0.35267 1.3188 0.45853 3.0196 1.4359 4.9437 2.413 1.2834 0.65171 2.7097 1.3256 4.2741 1.8444 0.82066 0.25616 1.675 0.47227 2.5608 0.62232 2.4382 0.41307 4.9337 0.17563 7.373-0.48964-2.1343 2.0738-4.5996 3.8088-7.2974 5.0864-2.9739 1.3968-6.1812 2.1813-9.3299 2.1592-2.3537-0.0166-4.4658-0.51762-5.9174-1.8409-0.0581-0.0524-0.11481-0.10633-0.17015-0.16167-0.62017-0.62013-1.0783-1.3836-1.3462-2.2201-0.28848-0.90064-0.35369-1.9078-0.24807-2.8056zm16.789 26.062c-0.22435-0.78451-0.10764-1.7551 0.26951-2.6956 0.38072-0.94929 1.0382-1.9334 1.833-2.861 1.122-1.3092 2.564-2.5569 4.0738-3.8504 0.64837-0.55107 1.2715-1.0709 1.946-1.6469 4.8899-4.1754 9.2009-8.7948 12.896-13.682-0.41786 1.3174-0.7909 2.7164-0.98402 4.2131-0.0866 0.67106-0.12985 1.3608-0.12638 2.0537-0.44798 2.88-0.85755 5.7856-1.5901 8.4575-0.82885 3.0232-2.1534 5.9305-4.2906 8.2776-0.8221 0.90285-1.7563 1.7127-2.7709 2.3831-0.30575 0.20704-0.61909 0.40098-0.93892 0.58072-1.4111 0.79302-2.9564 1.3036-4.4261 1.4622-1.4578 0.15741-2.8518-0.0426-3.8926-0.53485-1.0289-0.48663-1.7515-1.2925-1.9987-2.1575zm-3.9115-35.111c-0.46954-0.76019-0.79746-1.718-0.91614-2.5606-0.12021-0.85325-0.0491-1.6846 0.18789-2.3229 0.24036-0.64771 0.65955-1.1533 1.216-1.489 0.55869-0.33703 1.2694-0.52001 2.0872-0.58509 1.6171-0.12872 3.7502 0.21024 6.0698 0.5627 2.0781 0.31575 4.4157 0.64582 6.8279 0.5642 0.60178 0.0696 1.1916 0.0814 1.7594 0.0357 1.2679-0.10213 2.3998-0.45968 3.4291-0.94149-3.135 3.5996-6.9579 6.4465-11.098 8.3215-1.86 0.84232-3.6652 1.3857-5.3954 1.1503-0.85941-0.11697-1.6844-0.42485-2.4032-0.90361-0.71064-0.47339-1.3345-1.136-1.7643-1.8318zm30.087 18.911c-0.49841-0.41596-0.88163-1.0659-1.0848-1.815-0.0876-0.32305-0.13136-0.68129-0.16195-1.0453 0.0179-0.13981 0.0273-0.28512 0.0457-0.424 0.20673-1.5532 0.4844-3.1124 0.77708-4.6433 0.27041-0.85789 0.56781-1.7317 0.88919-2.6423 1.6801-4.7603 3.2707-9.5091 4.6579-14.145 0.58096-1.9692 1.1565-3.9361 1.7192-5.8903 0.33332 2.4035 0.70305 4.8848 1.2719 7.3185 0.0617 0.28593 0.12568 0.57195 0.19232 0.85789 0.64912 2.7851 1.4186 5.5835 1.7714 8.2079 0.3594 2.6746 0.3143 5.3823-0.48417 7.8999-0.78847 2.4861-2.3931 4.7725-4.3373 6.008-0.95981 0.60996-2.0019 0.96332-2.9254 1.0086-0.91223 0.0447-1.763-0.22091-2.3311-0.69508zm-18.354-29.678c-0.58011-0.4476-1.1051-1.0753-1.4324-1.6814-0.33181-0.61451-0.50579-1.2719-0.49212-1.8417 0.0272-1.1335 0.80296-2.0459 2.0264-2.6748 0.016-0.009 0.0312-0.0185 0.0472-0.0276 1.3335-0.7758 3.1834-1.3191 5.214-1.8597 2.0246-0.53894 4.336-1.1047 6.5558-2.107 2.2031-0.99466 4.1046-2.4531 5.7902-4.181-1.5287 4.9771-4.3107 9.4367-8.114 12.708-0.40503 0.3363-0.82226 0.65609-1.2509 0.95856-0.57312 0.40441-1.1517 0.75214-1.7361 1.0434-1.1327 0.38004-2.3021 0.64146-3.5101 0.75089-0.1084 0.01-0.22291 0.0117-0.33215 0.0194-0.31101-0.0374-0.61825-0.0888-0.91379-0.17434-0.68416-0.198-1.3404-0.5378-1.8521-0.93267zm-221.33-61.249c2.137 5.8884 4.4982 11.624 7.0719 17.186-5.889 8.8403-11.044 18.175-15.339 27.891 0.81404-14.757 3.5665-29.97 8.2669-45.077z"/>
	<path d="m165.78 79.686-28.738 73.755q6.029 0 10.048 0 4.0193-0.20096 6.6319-0.40193 2.8135-0.20096 4.6222-0.6029h2.2106q-1.6077 4.0193-5.2251 7.6367-3.4164 3.4164-7.8377 6.029-4.2203 2.6126-8.8425 4.4212-4.4212 1.6077-8.0386 2.0097-2.0097 4.8232-4.2203 12.661-2.0097 7.6367-6.23 15.273-4.2203 7.4358-11.455 12.862-7.0338 5.4261-19.092 5.4261 0 0 0-0.6029 0.20097-0.80387 1.6077-5.0242 1.6077-4.4213 4.8232-13.867 3.4164-9.4454 9.8473-26.728-7.8377 1.0048-17.082 1.2058-9.0435 0-17.082 0h-17.082q-1.4068 0-2.4116-0.6029t-1.0048-1.6077q0-0.6029 0.20097-1.0048 6.4309-10.048 14.871-20.9 8.6415-10.852 18.489-21.101 9.8473-10.45 20.298-19.494 10.651-9.2444 21.101-16.278 10.45-7.0338 20.298-11.053 9.8473-4.2203 18.288-4.2203h1.0048v2.2106zm-84.406 71.745q0 0.80387 0.80386 1.2058t4.0193 0.6029q3.2155 0.20096 9.4454 0.20096 6.4309 0 17.685 0l20.499-52.251q0-0.40193-0.20096-0.6029 0-0.20097-1.0048-0.6029-5.2251 3.2155-11.254 8.2396-5.828 4.8232-11.656 10.45-5.627 5.4261-10.852 11.053-5.0242 5.627-9.0435 10.249-3.8184 4.6222-6.2299 7.8377-2.2106 3.0145-2.2106 3.6174zm34.164 28.738-4.2203-6.4309-11.656 35.37q3.8184 0 6.6319-1.8087 3.0145-1.8087 5.627-5.828 2.8135-4.2203 5.627-10.852 3.0145-6.8328 6.6319-16.881l-8.6415 6.4309zm31.954-21.302q-9.8473 0.40193-18.69 0.6029-3.8184 0-7.6367 0.20096-3.8184 0-7.4357 0.20097-3.4164 0-6.23 0-2.8135 0-4.6222 0-3.6174 0-8.4406-0.20097-4.6222-0.40193-8.6415-1.0048-4.0193-0.80386-6.8328-2.2106-2.8135-1.6077-2.8135-4.0193-0.40193 0.20097-0.6029 0.6029-0.40193 0.80387-0.40193 1.6077 0 1.2058 2.0097 2.8135 2.2106 1.4068 7.2348 2.8135 5.2251 1.2058 14.068 2.2106 8.8425 0.80386 22.307 0.80386h16.077q-5.4261 0.80387-11.254 1.6077-5.0242 0.6029-11.254 1.2058-6.029 0.40193-12.259 0.40193-5.2251 0-10.852-0.20097-5.627-0.40193-10.852-1.2058-4.0193-0.6029-6.2299-1.2058t-3.2155-1.0048q-1.2058-0.6029-1.6077-1.2058-1.2058 0.20097-2.0097 0.80387-0.80386 0.40193-1.4068 1.2058-0.6029 0.6029-0.6029 1.4068 0 1.2058 4.0193 2.0097 4.0193 0.80386 10.249 1.4068 6.4309 0.6029 14.47 0.80386 8.0386 0.20097 15.876 0.20097 5.2251 0 10.45-0.20097 5.2251-0.20096 10.048-1.2058 5.0242-1.0048 9.2444-3.0145 4.4212-2.2106 7.8377-6.23zm11.857-74.96h-1.0048l-5.0242 11.053-4.6222 2.0097-4.0193-2.2106 2.2106-6.6319q-2.6126 2.0097-3.0145 2.6126-0.6029 0.6029-0.6029 0.80387l-22.508 60.893h1.2058l2.2106-5.0242 5.4261-2.6126 2.0097 3.4164-1.0048 4.2203h1.0048l27.733-68.529zm-44.414 98.674 5.828-3.4164q-3.0145 7.2348-6.029 13.063-2.6126 5.0242-5.627 9.4454-3.0145 4.2203-5.828 4.6222l8.6415-27.733 3.0145 4.0193zm19.896-50.442 4.2203-2.2106-6.6319 16.479-1.8087-3.6174-5.2251 2.2106 6.6319-16.077 2.8135 3.2155zm7.4358-21.503 3.2154 3.2155-5.4261 14.068-4.2203 2.0097-3.0145-3.2154 5.4261-13.867 4.0193-2.2106zm5.828-12.058 4.4213-1.6077-6.4309 14.269-2.8135-3.8184-4.4213 3.2154 5.0242-14.068 4.2203 2.0097z"/>
</svg>
