<svg fill="#353289" xmlns="http://www.w3.org/2000/svg" height="273" width="258" version="1.1" viewBox="0 0 273 258">
	<path d="m251.29 206.14c-13.301 10.766-27.376 20.418-41.693 29.286-5.1006 3.1594-10.21 6.2054-15.317 9.1616-5.8389 3.394-11.625 6.6373-17.427 9.8054-0.68817-5.4437 1.2428-11.021 5.045-16.308 2.3835-3.3141 5.5417-6.5452 9.1841-9.6323-20.855 2.6599-42.194 1.9462-62.782-2.5889-20.472-4.5026-40.225-12.949-57.113-25.586-17.442-13.079-31.387-30.656-40.282-50.541-4.9791-11.148-7.9019-23.135-8.9208-35.234v-0.00002c-1.0424-12.238-0.13576-24.696 3.0192-36.643 2.0636-7.8398 5.1604-15.468 9.3491-22.477 0.69264-4.476 1.563-8.8413 2.6161-13.234 0.40614-1.6432 0.83636-3.2711 1.2852-4.8848 1.7817-6.4066 3.8031-12.383 5.8011-18.232 4.5523-3.2375 9.4011-6.0407 14.481-8.3712-3.0694 5.3954-6.1294 10.84-9.0781 16.803-2.7204 5.5012-5.2181 11.181-7.2851 17.098 2.9505-3.3738 6.2237-6.4513 9.7546-9.1941 3.1507-5.4118 6.6401-10.508 10.345-15.412 1.8153-2.4025 3.6578-4.7246 5.5243-7.0015 2.3658-2.7506 4.7718-5.3555 7.1649-7.8674 5.8102-1.2712 11.734-1.8454 17.651-1.7201-5.3747 3.4952-10.768 7.2451-16.015 11.613-2.1028 1.7504-4.158 3.5794-6.1406 5.4971-2.5012 2.4759-4.9149 5.0375-7.2321 7.7069 2.7934-1.428 5.6816-2.6724 8.6422-3.7199 1.2767-0.45161 2.5689-0.8565 3.8734-1.2146 5.0588-3.8148 10.521-7.0685 16.172-9.872 6.1137-3.033 12.192-5.4111 18.302-7.5351 1.4402 0.38016 2.8724 0.80388 4.2946 1.2712 4.4595 1.3898 8.884 3.3933 13.143 6.0337-5.2427-0.0571-10.365 0.32892-15.538 1.2533-1.6443 0.29687-3.2842 0.62754-4.9214 0.99602-6.1894 1.393-12.219 3.2947-18.033 5.8306 4.5315-0.14641 9.08 0.2359 13.524 1.1492 2.353-0.41806 4.7277-0.73869 7.1247-0.96438 4.0038-0.37747 8.054-0.39928 12.187 0.00006 4.1806 0.40394 8.3303 1.229 12.548 2.4851 2.9949 0.98287 5.8807 2.1492 8.652 3.4335 4.2642 5.8463 7.2525 12.457 8.822 19.502-4.9098-5.5154-10.622-10.411-17.233-14.066-1.9679-1.088-3.999-2.0563-6.08-2.881-4.3813-1.6499-8.7167-2.6246-13.072-3.0734 2.2364 1.1476 4.3841 2.4962 6.3938 4.0548l-4.5229 5.8338c-1.6153-1.2518-3.3779-2.3468-5.2387-3.2936 2.2972 2.9497 3.7145 6.0891 4.1258 9.1088 0.18817 1.3877 0.1734 2.7468-0.0129 4.0373-0.62793 4.3488-3.125 7.738-6.3702 9.6069-0.26878-1.2344-0.8365-2.5181-1.5604-3.5201 0.93066-1.2418 1.6562-2.6347 2.1046-4.1352 0.61197-2.2526 0.5131-4.7388-0.31343-7.3069-0.81724-2.5392-2.3344-5.1095-4.4682-7.5027-1.3276-1.4496-2.855-2.8178-4.5698-4.0696-3.8676-0.79124-7.8409-1.1221-11.799-0.99489 5.2112 2.177 9.3206 5.4126 12.116 9.0806 0.74174 0.97321 1.3906 1.9749 1.947 2.995 1.5773 3.1335 2.1671 6.2745 1.8153 9.1766-1.1758-0.66913-2.6232-1.2912-4.2111-1.8896-0.58498-0.19265-1.1803-0.36721-1.7841-0.52373-1.2466-4.0176-3.7766-7.8933-7.6733-11.038-3.6151-2.9178-8.36-5.1418-13.912-6.0475-1.1352 0.31054-2.2581 0.66165-3.3656 1.0533-2.6488 0.93638-5.2362 2.0509-7.7399 3.3304 3.2154-0.16003 6.2891 0.0776 9.1495 0.65516 2.1196 0.46656 4.0965 1.1601 5.9034 2.0318 4.4905 2.1662 7.868 5.3808 10.082 9.0007-2.575-0.0491-5.1651 0.1903-7.6488 0.71595-1.6069-1.6413-3.5032-3.0834-5.6759-4.2264-1.9644-0.91887-4.1092-1.6406-6.4107-2.1227-4.6871-0.98182-9.9967-0.95463-15.529 0.38313-3.1638 2.4559-6.0922 5.2088-8.7202 8.2201 5.1634-2.3648 10.366-3.3716 15.151-3.2801 5.1486 0.0986 9.7507 1.4503 13.575 3.6292-2.6262 1.2031-5.1506 2.6587-7.5082 4.3286-4.1615-1.4273-8.9246-1.9126-13.97-1.0494-1.2797 0.21894-2.5738 0.52491-3.8737 0.92308-3.5024 1.0698-7.0226 2.8034-10.42 5.1916-3.7914 6.3591-6.6197 13.357-8.5439 20.585-2.9304 11.046-3.7638 22.665-2.7993 34.126 0.96523 11.332 3.6819 22.521 8.3027 32.839 8.3777 18.737 21.55 35.348 37.965 47.641l0.00001 0.00001c15.912 11.944 34.716 19.956 54.271 24.281 19.691 4.3488 40.187 5.0244 60.252 2.4745-4.1647-2.1031-7.5734-4.7226-10.115-7.6724-4.0631-4.716-5.8857-10.173-5.8222-15.642 4.4991 2.6791 9.4418 5.0107 14.778 6.9152 4.6756 1.6568 9.6353 2.9847 14.834 3.9225 14.614 2.6363 30.941 2.1474 47.47-2.4986z" />
	<path d="m182.1 48.788q3.0145 0 3.0145 2.6126 0 1.2058-1.8087 6.6319t-4.8232 13.666q-2.8135 8.2396-6.6319 18.489-3.6174 10.048-7.6367 20.7-4.0193 10.45-7.8377 20.499-3.8184 10.048-7.0338 18.087-3.0145 8.0386-5.0242 13.264-2.0097 5.0242-2.2106 5.828-3.8184 8.2396-9.0435 12.661-5.2251 4.2203-10.249 6.23-5.828 2.2106-11.857 2.6126-0.6029 0-1.0048-0.40194-0.20097-0.20096-0.20097-0.60289 7.4358-19.896 13.063-34.968 5.828-15.273 10.048-26.528 4.2203-11.254 7.0338-18.891 3.0145-7.8377 4.8232-12.862 4.4212-11.857 5.0242-13.666 0-2.2106-3.2155-2.2106-2.4116 0-6.6319 1.6077t-8.6415 3.4164-8.2396 3.4164q-3.6174 1.6077-5.0242 1.6077-0.6029 0-0.6029-0.40194 0-2.6126 3.6174-6.6319 3.8184-4.2203 9.6464-8.6415 5.828-4.6222 13.063-9.0435 7.4358-4.6222 14.47-8.2396 7.2348-3.6174 13.465-5.828 6.4309-2.4116 10.45-2.4116zm-40.595 108.12q2.2106-5.828 5.4261-14.871 3.4164-9.0435 7.0338-19.896-0.60289 0.80386-2.2106 1.6077-1.4068 0.6029-3.0145 0.6029t-3.2155-1.2058q-1.4068-1.4068-2.2106-3.0145-5.2251 14.068-8.8425 23.714-3.4164 9.4454-5.828 15.675-2.2106 6.23-3.4164 9.6464t-1.8087 5.0242q-0.6029 1.4068-0.6029 1.8087 0 0.20097 0 0.20097 0.6029 0 2.6126-0.40193 2.2106-0.40194 4.8232-2.2106 2.8135-1.8087 5.828-5.627 3.0145-4.0193 5.4261-11.053zm14.671-41.399q3.8184-10.651 7.2348-19.293 3.4164-8.6415 6.029-15.072 2.8135-6.6319 4.4212-10.852 1.6077-4.4212 1.6077-6.6319 0-1.8087-0.80386-3.2155-0.80387-1.6077-3.4164-1.6077-2.6126 0-6.6319 1.8087-3.8184 1.6077-7.8377 4.0193-4.0193 2.2106-7.8377 4.8232-3.6174 2.4116-5.627 4.0193 1.2058-0.40193 2.4116-1.0048 1.0048-0.40193 2.2106-0.80387 1.2058-0.40193 2.6126-0.40193 2.2106 0 4.4212 1.8087 2.2106 1.6077 2.2106 6.2299 0 2.2106-3.4164 10.651-3.2155 8.2396-7.2348 20.097 0.60291-0.6029 1.4068-0.80386 1.0048-0.20097 2.0097-0.20097 2.8135 0 4.4213 1.8087 1.6077 1.8087 1.8087 4.6222zm2.2106-22.508 5.0242-2.0097-7.0338 18.69q-1.6077-2.8135-5.0242-2.8135-1.4068 0-2.2106 0.20096l6.6319-16.479 2.6126 2.4116zm12.058-31.753q1.6077 0 1.8087 1.2058 0.40193 1.0048 0.40193 2.6126 0 2.6126-1.4068 6.6319-1.4068 3.8184-3.0145 7.8377-2.0096 4.6222-4.4212 9.6464l-5.0242 2.0097-2.0097-2.4116q1.6077-4.0193 2.0097-7.0338 0.6029-3.0145 0.6029-5.2251 0-2.8135-1.0048-4.0193-1.0048-1.4068-2.0097-2.2106-1.4068-0.80386-3.0145-1.0048 3.0145-2.2106 6.029-4.0193 2.6126-1.6077 5.627-2.8135 3.0145-1.2058 5.4261-1.2058zm-26.327 62.299q0 1.0048 1.0048 2.0097 1.0048 0.80386 3.6174 0.80386 0.60289 0 1.0048-0.20096 0.60289-0.20097 1.4068-0.6029l-7.0338 18.087-2.0097-4.2203-4.2203 1.4068 6.23-17.283zm-2.8135 18.087 2.4116 4.0193q-2.4116 7.4357-5.4261 13.465-1.2058 2.6126-2.8135 5.2251-1.4068 2.4116-3.0145 4.4212-1.6077 2.0097-3.4164 3.4164-1.6077 1.4068-3.4164 1.6077 3.4164-7.6367 6.029-15.474 2.6126-8.0386 6.029-15.474l3.6174-1.2058z" />
</svg>
