<svg fill="#32893f" xmlns="http://www.w3.org/2000/svg" height="273" width="258" version="1.1" viewBox="0 0 273 258">
	<path d="m239.82 230.41c-6.4848 4.5045-13.427 8.6218-20.754 12.306-7.3167 4.5145-15.126 8.5988-23.347 12.186-1.7616 0.76883-3.5739 1.5116-5.553 2.036-1.9834 0.52537-4.1285 0.82836-6.3078 0.8019-2.18-0.0266-4.3543-0.38205-6.3157-1.0246-0.4519-0.1481-0.89159-0.31085-1.3177-0.48695-1.4216-0.58417-2.69-1.3156-3.7603-2.1414-2.7875-2.1509-4.1679-4.918-3.8861-7.5097 0.2053-1.8835 1.8572-3.4725 3.0421-5.1404 0.68119-0.95892 0.1824-1.8043-1.2524-1.96-18.917-2.0522-37.561-6.9038-54.97-14.694-19.132-8.5542-36.76-20.824-50.735-36.615-14.42-16.33-24.513-36.37-29.194-57.63-2.617-11.93-3.051-24.25-1.599-36.303 1.458-12.192 4.868-24.204 10.375-35.261 5.354-10.768 12.839-20.619 22.374-28.208 2.0275-1.6061 4.1429-3.0948 6.3324-4.4613 1.4671-4.7488 3.538-9.5166 6.2099-14.173 5.0426-8.7875 12.772-10.812 19.632-11.54 0.28271-0.0305 0.56564-0.0588 0.84874-0.0853-0.25845 0.22274-0.51458 0.44684-0.76843 0.67225-6.3451 5.971-11.288 12.631-14.818 19.491 0.79349-0.31857 1.5927-0.62301 2.3971-0.91288 2.4303-4.3338 5.443-8.5639 9.0352-12.56 1.2037-1.3389 2.4638-2.456 3.747-3.3786 6.5769-4.5089 13.568-4.2344 19.784-3.1497-7.3055 3.5428-13.529 8.1764-18.38 13.413-0.74229 0.81943-1.4576 1.65-2.146 2.4905 0.80932-0.13975 1.6212-0.26543 2.4352-0.3769 0.0345-0.005 0.0693-0.009 0.10401-0.0142 3.3465-3.7351 7.4028-7.1723 12.062-10.131 9.1631-5.8186 17.734-3.3343 24.526-0.15594-9.2585 1.7235-17.397 5.3089-23.968 10.001 0.86389 0.0757 1.726 0.17082 2.5856 0.28516 4.2055-2.7281 8.9939-5.0032 14.258-6.6444 5.4823-1.7095 10.384-1.1401 14.454 0.44203 3.7172 1.4062 6.9148 3.7726 9.8577 6.511-4.6748-0.81455-9.1607-0.87382-13.37-0.40016-4.6165 0.53926-8.9536 1.6103-12.945 3.1018 0.81481 0.29737 1.623 0.61321 2.4237 0.94733 2.9699-0.9575 6.1165-1.6794 9.414-2.1218 2.0311-0.26463 4.1305-0.40352 6.2875-0.38945 7.9016 0.0515 13.679 4.2154 17.642 9.4289 1.6865 2.3311 2.9996 4.8456 4.0778 7.423-2.5728-1.9162-5.2567-3.5145-7.9832-4.7847-6.3804-2.7828-12.557-3.6601-18.245-3.348 3.4171 2.371 6.6699 5.0678 9.6314 8.2078 0.18322 0.1943 0.36518 0.39105 0.54551 0.59057 1.7501 1.9728 3.2971 4.1932 4.3535 6.7051 1.1813 2.8103 1.6525 5.8957 1.0298 8.4656-0.67142 2.7711-2.4977 4.2724-4.3027 4.2987-1.7934 0.0261-3.6236-1.3373-4.8516-3.0644-1.1424-1.6066-1.925-3.6661-2.5672-5.5777-0.58659-1.7468-1.1371-3.5558-1.8828-5.2738-0.077-0.18148-0.15641-0.36242-0.23829-0.54267-1.3327-2.9345-3.4955-5.6058-6.2003-7.81 0.73281 5.11 0.2712 9.9545-1.6296 13.803-0.80953 1.5676-1.8303 2.9722-3.0034 4.1777-0.32525-0.54842-0.65463-1.0052-0.90193-1.5395-0.71365-1.892-0.76317-3.207-0.94529-9.1515-0.047-1.5354-0.22545-3.1192-0.52594-4.7237-0.55106-2.6541-1.3955-5.3392-2.5251-8.0052-0.69814-0.29055-1.4033-0.56531-2.1146-0.82413 1.7084 3.569 2.8928 7.1972 3.532 10.757 0.48876 3.1734 0.48251 6.2402-0.0947 8.9735-1.1421-0.79206-2.3068-1.4861-3.4172-2.8627-1.4911-1.6634-2.5901-3.7797-4.1742-7.9713-1.49-3.9425-3.6874-7.8527-6.5578-11.523-0.75148-0.10029-1.5051-0.18381-2.2599-0.25052 4.8795 5.6992 8.041 12.105 9.3403 18.349-4.1302-1.4326-6.0478-1.6985-11.051-8.6808-2.4615-3.435-5.5683-6.6474-9.2858-9.4295-0.0303 0.004-0.0602 0.008-0.0903 0.0123-0.72922 0.0997-1.4568 0.21217-2.1823 0.33732 0.84642 0.57554 1.6705 1.168 2.4715 1.7762 4.9797 3.8912 8.7818 8.591 11.313 13.54-3.4032-0.26403-5.6094-0.16188-9.9091-3.2771-0.94939-0.62117-1.9653-1.3614-3.1125-2.2577-3.4098-2.6644-7.2927-5.0066-11.567-6.9249-0.72207 0.26006-1.4394 0.53309-2.1516 0.81879 6.738 2.7382 12.571 6.5331 17.192 11.004 0.15612 0.16935 0.31033 0.33981 0.46251 0.51134-0.1278 0.0246-0.25521 0.0499-0.38222 0.0755-4.3242 0.83678-6.9706 1.4575-14.48-2.1887-3.8951-1.8913-8.1715-3.3763-12.747-4.3533-1.9594 1.2231-3.8492 2.5548-5.6559 3.9901-8.5832 6.7832-15.401 15.811-20.37 25.738-5.1088 10.227-8.2794 21.44-9.6569 32.863-1.3506 11.296-0.95625 22.807 1.4797 33.851 4.41 20.052 13.948 38.991 27.536 54.359v0.00002c13.166 14.923 29.962 26.581 48.239 34.779 16.655 7.4643 34.565 12.116 52.766 14.095 1.3948 0.15163 2.0039-0.59966 1.5639-1.6646-0.78383-1.897-1.9043-3.7304-1.6777-5.6472 0.30604-2.5865 2.0741-4.9864 4.6755-6.6343 1.0048-0.6366 2.1382-1.1686 3.3544-1.5619 0.36534-0.11882 0.73832-0.22573 1.118-0.31917 1.6431-0.40425 3.4136-0.55661 5.1532-0.44372 1.7401 0.11283 3.4508 0.49173 5.046 1.0366 1.5983 0.54556 3.0779 1.2555 4.5637 1.9577 6.913 3.267 14.216 6.115 21.869 8.4456 7.434 1.5315 15.113 2.5736 22.994 3.0516z"/>
	<path d="m197.98 132.01q-1.6077-0.40193-2.2106-1.6077t-0.6029-2.8135q0-2.6126 0.6029-4.4212 0.40193-1.0048 0.80386-2.0097 2.8135 4.0193 2.8135 6.8328 0 1.8087-0.80387 3.0145-0.40193 0.6029-0.6029 1.0048zm1.8087 10.048q1.6077 0 2.6126-1.4068 1.0048-1.6077 1.8087-3.2155-1.0048 3.6174-2.0097 7.4357-1.0048 3.4164-2.4116 7.4358-1.4068 3.8184-3.6174 7.8377l-1.2058-4.6222-5.627 1.0048q1.4068-2.6126 2.4116-5.2251 1.0048-2.2106 1.6077-5.0242 0.80387-3.0145 0.80387-5.828 0-0.40193-0.20097-1.0048 0-0.6029 0-1.0048 1.0048 1.0048 1.8087 1.8087 1.8087 1.8087 4.0193 1.8087zm-6.23 15.474 1.4068 4.8232q-1.0048 2.2106-2.8135 4.2203-1.6077 2.0097-3.2155 3.6174-2.0097 2.0097-4.2203 3.6174h-4.4212l-1.0048-1.8087q1.4068-1.0048 3.0145-3.0145 1.6077-2.2106 3.2155-4.6222 1.8087-2.6126 3.4164-6.029l4.6222-0.80387zm-14.269 17.685 3.8184-0.40193q-3.4164 1.8087-6.4309 3.2154-2.6126 1.2058-5.0242 2.2106-2.2106 0.80386-3.0145 0.80386l9.6464-7.8377 1.0048 2.0097zm57.878-127.01v1.2058q-1.8087 4.6222-4.2203 9.2444-2.2106 4.4212-5.627 8.0386-3.2155 3.6174-7.6367 5.828-4.2203 2.2106-9.6464 2.2106-3.0145 0-5.627-0.6029-2.6126-0.6029-5.4261-1.2058t-6.029-1.2058q-3.2154-0.6029-7.2348-0.6029-2.0097 0-4.2203 0.20096-2.2106 0.20097-4.0193 0.6029-2.2106 0.40193-4.2203 0.80387-0.6029 0-1.2058 1.2058-0.40193 1.0048-1.0048 2.6126-0.6029 1.6077-1.2058 3.6174-0.6029 1.8087-1.2058 3.4164 0 1.0048 0.6029 1.2058 0.40193 0.20097 0.80386 0.20097 7.2348 0.60289 13.666 2.6126 6.6319 1.8087 12.259 5.4261 5.627 3.4164 10.048 8.8425 4.4212 5.2251 7.2348 12.661 1.0048 2.6126 1.6077 5.627 0.80387 3.0145 1.8087 6.029 1.0048 2.8135 2.2106 5.2251 1.4068 2.2106 3.6174 3.6174-2.2106 3.0145-5.4261 3.0145-0.80386 0-1.6077-0.6029-0.6029-0.80387-1.2058-1.2058 0 12.259-5.828 22.307-5.828 9.8473-14.47 16.881-8.6415 6.8328-18.69 10.651-9.8473 3.8184-17.886 3.8184-11.053 0-18.288-2.6126-7.2348-2.8135-11.455-7.2348-4.2203-4.6222-5.828-10.249-1.8087-5.627-1.8087-11.455 0-4.4212 0.80387-8.8425 0.80386-4.4212 2.0097-8.0386 1.2058-3.8184 2.4116-6.6319 1.4068-2.8135 2.6126-4.4212 2.6126-2.4116 5.4261-4.6222 2.4116-1.6077 5.4261-3.0145 3.2154-1.6077 6.6319-1.6077 1.8087 0 3.6174 0.6029 2.0097 0.40193 3.8184 1.8087v-4.6222q0.40193 1.0048 1.2058 1.8087 0.60289 0.6029 1.2058 1.2058 0.6029 0.40193 1.2058 0.40193 0.80386 0 1.0048-1.0048l2.4116 3.4164q0 0.60289 0.40193 1.4068 0.40194 0.6029 1.0048 1.4068 0.6029 0.80387 2.0097 1.6077l-1.2058 2.4116 1.2058 1.0048q0 1.2058 0.40193 2.2106t1.0048 2.2106q0.6029 1.2058 2.0097 2.4116-1.0048 1.0048-1.8087 1.8087-0.60289 0.80387-1.2058 1.8087-0.40193 0.80386-0.40193 1.2058l1.0048 2.0097q-0.40194 0.20096-0.6029 0.20096-0.40193 0.40193-0.40193 0.6029 0 0.6029 1.0048 1.6077-1.0048 1.2058-2.2106 3.2154-1.2058 2.0097-1.2058 3.6174 0 0.20097-0.20096 0.20097-0.20097 0.20097-0.80387 0.20097-0.80386 0-1.2058-0.40194l-1.2058 2.4116q-0.80386 0-1.6077 0.6029-0.80386 0.40193-1.8087 1.4068-1.0048 0.80386-2.2106 2.4116-3.4164 0-5.2251 0-1.6077-0.20097-1.8087-0.20097 0 0.20097-0.20097 0.6029 0 0.40193-0.80386 0.80387 0-0.20097 0.20096-0.80387 0.40194-1.2058 0.40194-2.0097 0-1.2058-1.0048-2.2106-0.80386-1.0048-2.2106-1.0048-2.8135 0-3.4164 2.4116-0.40193 2.4116-0.40193 4.8232 0 2.2106 0.6029 4.8232t2.4116 4.8232 5.0242 3.6174q3.4164 1.4068 8.6415 1.4068 3.8184 0 8.4406-2.2106 4.8232-2.4116 9.0435-7.0338 4.4213-4.8232 8.0386-11.857 3.6174-7.0338 5.2251-16.479-2.2106 1.4068-4.0193 1.4068-2.2106 0-3.2154-1.8087-0.6029-0.80386-0.6029-2.0097 3.0145-2.6126 4.0193-6.029 1.2058-3.6174 1.2058-7.2348 0-7.2348-2.0097-11.857-2.0097-4.8232-6.029-7.6367-4.0193-3.0145-9.8473-4.4212-5.828-1.6077-13.666-2.6126v-1.0048q6.8328-18.489 10.45-28.537 3.8184-10.249 5.627-15.072 1.8087-4.8232 2.2106-5.828 0.6029-1.0048 1.2058-1.0048h67.123zm-88.827 110.73q0.20096-0.20097 0.40193-0.80387 0.20096-0.40193 0.40193-1.0048 0.20097-0.6029 0.20097-1.6077l2.4116-1.0048v-1.4068l-2.4116-2.0097q0 0.40193-0.20097 1.2058 0 0.6029 0 1.2058 0 0.80387 0.20097 1.0048-0.40194 0-0.6029-0.20096-0.40193-0.40193-0.40193-1.2058v2.4116q-0.20097-0.20096-0.40194-0.60289-0.20096-0.40194-0.20096-1.4068v-1.0048q0-0.40193 0.20096-0.6029-0.40193 0-0.80386 1.0048t-0.80386 1.0048q-0.40194 0-0.40194-0.80387-0.40193 0.40193-0.40193 0.80387 0 1.0048 1.0048 2.0097 1.2058 0.80386 1.2058 1.6077 0 0.40194-0.6029 0.40194l-1.2058-1.4068v2.4116q-0.20096 0.20096 0 0.40193 0 0.20097 0.80387 0.20097 0.40193 0 1.6077-0.6029zm3.4164 1.2058q0.40193-0.40193 2.0097-1.8087 1.6077-1.4068 1.6077-2.4116l-1.4068-2.8135q-0.6029 1.2058-0.6029 1.6077 0 0.80386 0.20096 0.80386 0.20097 0.20097 0.40194 0-0.40194 0.40194-1.2058 0.6029-0.6029 0-1.0048 0.40193h-1.2058v1.4068h-1.2058v1.0048q0.40193 0.40193 0.80386 0.6029 0.6029 0.60289 1.6077 0.60289zm8.0386-11.455q-1.0048-1.0048-1.0048-2.4116 0-1.0048 0.20097-1.4068l0.40193-0.80386q-1.0048 0.40193-1.2058 1.0048-0.20096 0.6029-0.20096 1.2058 0 1.2058 0.20096 1.6077l0.40194 0.80387q-1.0048 0-2.2106 1.2058-0.80387 0.6029-1.2058 1.2058 0 0.40193 0.40193 0.6029 0.20097 0.6029 1.2058 0.6029 0.40193 0 0.6029-0.20097l2.4116-3.4164zm2.2106 0q0-2.2106-1.2058-3.4164 0 0.40194 0.20097 1.0048 0.40193 1.2058 0.40193 1.6077 0 0.80387-0.6029 0.80387 0 0.40193-1.2058 2.0097-0.6029 0.80386-1.0048 1.4068l1.2058 1.0048q0-0.80386 1.0048-2.2106 1.2058-1.4068 1.2058-2.2106zm0.40193-10.45q0-0.80386-0.80386-2.2106-0.80387-1.6077-1.8087-1.6077-1.2058 0-1.2058 3.0145l2.2106 1.0048h-2.2106l2.2106 1.0048h-2.2106q0.20096 0.40193 0.60289 0.80386 0.20097 0.40194 0.40194 0.80387 0.20096 0.40193 0.20096 0.80386 1.0048 0 1.6077-0.20096 0.6029-0.40194 0.6029-2.2106 0.40193-0.20097 0.40193-1.2058zm-7.2348-7.8377v1.2058q0.80387 0 1.6077 0.20097 0.80387 0.20096 0.80387 1.4068 0 0.40193-1.2058 1.2058-0.6029 0.40193-1.2058 0.6029v1.0048h2.2106q1.0048-0.80387 1.0048-2.2106 0.20097-1.4068 0.20097-2.2106 0-0.80386-0.80387-2.4116-0.80386-1.6077-1.2058-1.6077-0.20097 0-0.20097 1.0048 0 0.40193-1.2058 1.2058-0.6029 0.40193-1.2058 0.6029h1.2058zm0 15.876q-1.0048 0-1.6077-0.6029-0.60289-0.80387-1.4068-0.80387-0.40193 0-0.40193 0.40193l1.0048 1.0048-2.2106-1.0048 2.2106 3.4164-2.2106-2.4116v1.4068q0 1.0048 0.80387 1.6077 1.0048 0.60289 2.0097 0.60289 0.80386 0 1.8087-1.8087 0.6029-0.80386 1.0048-1.8087-0.20096-0.20097-0.20096-0.6029-0.20097-0.40194-0.20097-1.6077t0.40193-1.8087q0.6029-0.80386 0.6029-1.6077 0-0.40194-0.40193-0.80387-0.20097-0.40193-1.2058-1.4068-0.20096 0-0.20096 0.20096-0.20097 0.20097-0.20097 0.6029t0 0.80387q0.20097 0.40193 1.0048 1.4068 0 1.0048-0.80386 1.4068-0.80387 0.20097-1.0048 1.4068l0.60289 0.6029q0.20097 0.40193 0.40194 0.80387 0.20096 0.20096 0.20096 0.6029zm-3.4164-14.671q-2.8135-4.6222-5.828-4.6222-1.6077 0-2.8135 0.80387-1.0048 0.6029-2.0097 1.6077-1.0048 1.0048-2.0097 2.2106 0.40193-0.20096 1.2058-0.20096 1.0048 0 2.2106 0.60289 1.2058 0.40194 2.2106 0.80387 1.2058 0.6029 2.4116 1.2058 0.80386-1.0048 1.6077-1.2058 1.0048-0.40193 1.6077-0.80387 0.80386-0.20096 1.4068-0.40193zm-16.077 23.915q1.2058-2.2106 2.6126-4.8232 1.4068-2.8135 4.6222-2.8135 1.0048 0 1.6077 0.6029 0.6029 0.40193 1.2058 1.0048 0.6029 0.80387 1.2058 1.4068-0.20096-1.4068-0.80386-2.0097-0.6029-0.80386-1.2058-1.2058-0.80386-0.40193-1.8087-0.6029-0.40193-1.0048-0.6029-1.6077t-0.80386-0.6029q-0.20097 0-1.4068 0.40193 0.40194-1.0048 1.4068-1.0048 0.80386 0 2.0097 0.6029t3.4164 3.8184q-0.20097-0.6029-0.20097-1.8087 0-2.8135 1.8087-4.6222 0.80386-0.80386 1.8087-1.4068-0.6029-0.6029-2.2106-0.6029-1.4068 0-3.0145 0.40194-0.80387 0.20096-1.6077 0.20096 0.80386-0.40193 2.0097-0.6029 1.4068-0.40193 2.8135-0.6029 1.6077-0.20096 3.2155-0.20096-1.6077-0.6029-3.2155-0.6029-1.4068 0-2.6126 0.40193-1.2058 0.20097-2.2106 0.6029-1.2058 0.6029-2.2106 1.0048 2.2106-1.6077 4.0193-2.0097 2.0097-0.6029 3.4164-0.6029 0.40194 0 0.6029 0.20097 0.40193 0 0.6029 0h0.40193q-0.6029-0.6029-0.6029-1.4068 0-1.0048 0.20097-1.4068 0.20097-0.40193 0.40193-0.60289-1.4068 0-2.0097 0.60289-0.20096 0.20097-0.20096 0.40194-1.4068-0.40194-3.4164-0.40194-2.0097-0.20096-4.2203-0.40193-2.4116-0.20096-5.0242-0.20096-2.2106 3.0145-2.8135 6.4309t-0.6029 6.6319v5.0242l3.4164 2.4116zm26.327 27.331q7.8377-0.6029 13.867-2.8135 6.23-2.4116 10.852-5.828 4.6222-3.6174 7.8377-7.6367 3.2155-4.2203 5.4261-8.4406 5.2251-9.8473 6.4309-22.106l-3.4164-2.0097q-0.20097 1.6077-0.80387 2.8135-0.40193 1.0048-1.2058 1.8087-0.6029 0.80387-1.4068 0.80387-1.4068 0-3.6174-2.2106-1.0048-0.80386-2.0097-2.2106l-2.4116 1.0048q-0.40193 13.666-5.0242 22.91-4.6222 9.0435-10.048 14.269-6.4309 6.4309-14.47 9.6464zm48.634-52.251q-0.20097-10.45-3.4164-17.283-3.0145-7.0338-7.8377-11.455t-10.651-6.6319q-5.828-2.4116-11.254-3.4164-5.2251-1.2058-9.4454-1.4068-4.2203-0.40193-6.029-1.0048-1.6077-0.40193-2.0097-1.0048-0.40193-0.80387-0.40193-1.4068v-0.80387q0-0.20096 0.20096-0.20096-1.6077 0.40193-2.2106 1.4068-0.40194 1.0048-0.40194 1.8087 0 0.40193 0.80387 0.80387 0.40193 0.20096 0.80386 0.20096 9.0435 1.2058 15.876 3.4164 6.8328 2.0097 11.857 4.6222 5.2251 2.6126 8.6415 5.627 3.4164 3.0145 5.627 5.828 5.2251 6.8328 5.828 14.671-1.2058 0-2.6126-0.60289-1.2058-0.80387-2.6126-1.6077-1.2058-1.0048-2.4116-1.8087-1.2058-0.80386-2.4116-0.80386-0.40193 0-1.4068 1.0048-0.80386 1.0048-2.0097 2.4116-1.0048 1.2058-2.2106 2.4116-1.0048 1.2058-1.6077 1.6077 0.20097-1.0048 0.20097-1.8087 0-1.0048 0-2.0097 0-7.4358-3.0145-12.661-3.0145-5.2251-7.6367-8.6416-4.6222-3.6174-10.45-5.4261-5.627-2.0097-11.053-2.6126v2.4116q14.871 1.8087 21.905 8.6415 7.2348 6.8328 7.2348 22.307 0 1.8087-0.20097 3.4164-0.20096 1.6077-0.40193 2.6126-0.40193 1.2058-0.6029 2.2106 2.2106-0.40193 3.4164-1.4068 1.2058-1.0048 1.8087-2.0097 0.80386-1.2058 1.0048-2.8135 1.0048 2.0097 3.4164 3.4164 1.0048 0.80387 2.4116 1.4068 0.80386-0.40194 2.0097-1.4068 1.2058-1.0048 2.2106-2.0097 1.2058-1.0048 2.6126-2.4116 1.4068 0.6029 3.0145 1.4068 1.8087 0.6029 3.4164 1.0048zm-0.6029-61.898q6.029 0 9.6464-2.0097 3.6174-2.2106 5.627-5.0242 2.2106-3.0145 3.4164-7.0338-1.4068 0.6029-4.0193 1.0048-2.2106 0.40193-6.23 0.6029-3.8184 0.20096-9.8473 0.20096-3.6174 0-6.4309-0.20096-2.6126-0.40193-5.2251-0.80387-2.6126-0.60289-5.828-0.80386-3.0145-0.40193-7.2348-0.40193-5.627 0-9.0435 2.6126-3.2155 2.6126-5.0242 5.828-2.2106 3.6174-3.2155 8.4406 5.0242-6.8328 8.8425-9.0435 3.8184-2.4116 8.2396-2.4116 2.0097 0 5.2251 0.6029 3.2155 0.40193 6.4309 1.2058 3.4164 0.60289 6.4309 1.2058 3.2155 0.40193 5.4261 0.40193 1.6077 0 3.6174-0.40193 2.2106-0.40193 4.0193-1.0048 2.2106-0.6029 4.4213-1.4068-3.8184 2.4116-7.2348 3.2155-3.2155 0.80386-5.2251 0.80386-3.0145 0-8.0386-0.80386-4.8232-0.80387-10.048-0.80387-4.4213 0-7.4358 1.0048-2.8135 1.0048-4.6222 2.0097-2.2106 1.4068-3.2155 3.0145 1.2058-0.80386 3.2155-1.2058 2.2106-0.6029 4.2203-0.80387 2.2106-0.20096 5.0242-0.20096 6.029 0 11.656 1.2058 5.627 1.0048 12.46 1.0048z"/>
</svg>
