<svg fill="#32893f" xmlns="http://www.w3.org/2000/svg" height="273" width="258" version="1.1" viewBox="0 0 273 258">
	<path d="m272.57 94.206c-3.2132 15.545-7.7869 31.031-13.46 46.191-2.099 5.6096-4.3545 11.19-6.756 16.723-2.1656 5.0093-4.4579 9.9942-6.8801 14.946-0.38053 0.77778-0.76688 1.5544-1.1591 2.3298-0.68727-0.008-1.3734-0.0189-2.0583-0.0336-3.4564-0.0735-7.0358 0.10871-10.665 0.50365-1.4118 0.15367-2.8427 0.35484-4.2719 0.5713-0.72598 1.651-1.8601 3.2058-3.2884 4.498-3.0454 2.7495-6.9554 3.9082-10.094 3.0981-5.1568 4.188-10.547 8.0918-16.153 11.674-17.683 11.308-37.652 19.313-58.565 22.326-21.62 3.0905-43.946 0.51814-64.332-7.2666-11.429-4.3724-21.993-10.794-31.286-18.644l-0.00001-0.00001c-9.409-7.93-17.593-17.4-23.824-28.1-6.076-10.42-10.208-22.12-11.319-34.3-0.1163-1.31-0.1948-2.62-0.236-3.93-3.534-5.8-6.1036-12.68-7.2581-20.3-0.90872-6.005-0.93502-12.509 0.2464-19.229 3.0306-15.758 13.14-31.228 29.906-39.863 3.785-2.0324 7.981-3.5883 12.502-4.5607 4.8881-1.0514 10.203-1.4225 15.56-0.71117 1.1698 0.17888 2.3128 0.4124 3.4239 0.70016 6.4829 1.679 11.327 5.1122 13.477 8.913 1.4392 2.5441 1.5332 4.9855 0.7448 7.0156-0.79289 2.0407-2.4594 3.6771-4.5214 4.9837-0.39933 0.25289-0.8414 0.48219-1.2674 0.71187 2.5782 0.88967 5.0516 2.0807 7.3577 3.5481l-4.2102 6.6134c-1.7826-1.1354-3.7056-2.0619-5.7068-2.7544 0.12567 0.4249 0.2357 0.84689 0.29648 1.2778 0.31336 2.2237-0.22191 4.3787-1.1541 6.36-0.91586 1.9468-2.2469 3.7887-3.444 5.3373-2.0633 2.6688-3.0327 3.7258-4.0269 5.3657-0.13514 0.22297-0.25221 0.43129-0.35223 0.62614-0.67187 0.80057-1.3121 1.35-2.2059 1.9279-0.80542 0.52077-1.7241 1.005-2.8331 1.4437l-0.00001 0.00001c-4.656 2.212-12.545 5.5704-18.593 9.7537-3.2091 2.4741-6.3988 5.2971-9.4424 8.5001-3.8543 4.0561-7.489 8.7583-10.666 14.091 0.0374 1.1636 0.1081 2.3257 0.21265 3.4846 0.94918 10.855 4.7382 21.476 10.288 31.054 5.7244 9.859 13.334 18.645 22.103 26.052 8.6784 7.3156 18.49 13.294 29.028 17.312 19.138 7.3121 40.161 9.7388 60.423 6.8298 19.662-2.7996 38.595-10.421 55.457-21.173 5.3537-3.4166 10.506-7.148 15.44-11.157-0.21335-3.1613 1.3811-6.6036 4.1165-9.0818 1.3031-1.1732 2.8129-2.0841 4.3991-2.6488 0.21495-1.362 0.37763-2.7143 0.46283-4.0515 0.21852-3.4317 0.0156-6.7595-0.5671-9.9257-0.11593-0.62689-0.2351-1.2522-0.35748-1.8758 0.63782-0.34506 1.2747-0.69517 1.9105-1.0503 4.0466-2.2643 8.0117-4.8252 11.859-7.6693 4.2487-3.1516 8.3431-6.6379 12.231-10.446 10.553-10.335 19.449-22.909 25.74-37.188 0.60793 0.26447 1.2156 0.52968 1.8229 0.79565 0.64902 0.13563 1.2982 0.27049 1.9477 0.40457zm-14.571 24.962c-3.89 5.1725-8.0613 10.04-12.586 14.434-3.5815 3.4785-7.334 6.6852-11.214 9.6184-3.9291 2.9638-7.9828 5.6408-12.12 8.0262 0.44432 2.8425 0.75489 5.7762 0.60832 8.8246-0.0721 1.501-0.23645 3.0207-0.47178 4.5549 0.86438 0.10852 1.6786 0.34669 2.4138 0.71144 5.4886-5.5579 10.623-11.472 15.373-17.674 6.8376-8.9334 12.889-18.48 17.995-28.496zm3.5572 1.8292c-5.2176 10.235-11.396 19.982-18.377 29.098-4.8478 6.3338-10.092 12.374-15.701 18.052 0.37067 0.73521 0.60753 1.5569 0.69794 2.4402 1.5732-0.27516 3.1434-0.52469 4.6998-0.72007 3.1897-0.40042 6.2387-0.48533 9.3265-0.56078 2.3954-4.8924 4.6514-9.8208 6.7802-14.769 2.108-4.8861 4.0998-9.8088 5.9759-14.749 2.3695-6.2394 4.6333-12.482 6.5984-18.795l-0.001 0.003zm-252.99-5.75c0.15049-1.4374 0.34482-2.8699 0.58234-4.2952-0.84438-0.45963-1.6848-0.93074-2.521-1.4132 0.54795 1.9728 1.195 3.8792 1.9386 5.7084zm7.7925 0.81683c1.0868-1.4437 2.2011-2.8342 3.3454-4.1663-0.94172 0.10247-1.8838 0.21701-2.826 0.34368-0.21189 1.2689-0.38526 2.544-0.51948 3.8226zm0.75642-5.1544c1.2601-0.14243 2.5196-0.26334 3.7778-0.3628 1.0605-1.1848 2.1457-2.322 3.234-3.4222 0.61508-0.62216 1.2312-1.2326 1.8556-1.8279-2.5358 0.0208-5.0868 0.14407-7.6466 0.37073-0.48024 1.7294-0.88774 3.4791-1.2208 5.2422zm-7.701-1.4533c0.37317-1.979 0.82983-3.9421 1.3683-5.8827-2.0465-1.62-4.0452-3.3326-5.9898-5.1352 0.0655 1.1314 0.15991 2.2501 0.29183 3.352 0.23347 1.9508 0.58203 3.8514 1.015 5.6978 1.097 0.67609 2.2021 1.3322 3.3147 1.9681zm9.302-5.1037c2.8431-0.19104 5.6728-0.2551 8.48-0.19328 1.6136-1.4797 3.2469-2.8658 4.8823-4.1634 0.10253-0.0758 0.20515-0.15113 0.30787-0.22599-0.35452-0.0483-0.70988-0.0937-1.0661-0.13603-3.5668-0.33465-7.1963-0.43496-10.864-0.29847-0.64936 1.6469-1.23 3.3214-1.7402 5.0172zm-7.5063-2.2578c0.57224-1.9029 1.2237-3.7823 1.9526-5.6318-2.5232-2.7734-4.9069-5.7441-7.1284-8.9023-0.2176-0.32366-0.43316-0.64959-0.6466-0.97782-0.0357 0.20672-0.07 0.41336-0.10303 0.61991-0.44438 3.0594-0.62543 6.0788-0.57304 9.0249 2.0993 2.0659 4.2682 4.0228 6.4985 5.8671zm2.5407-7.0773c0.4392-1.0465 0.90351-2.0828 1.3926-3.1076 0.36269-0.75975 0.74231-1.511 1.1383-2.2532-2.9187-4.6034-5.3539-9.7132-7.2211-15.213-1.4114 3.2053-2.4817 6.4892-3.2103 9.788 0.96763 1.6174 1.985 3.1843 3.0496 4.6973 1.5443 2.119 3.1637 4.1496 4.8508 6.0886zm7.2283 3.034c2.5176-0.0385 5.0147 0.0344 7.4836 0.21791 1.711 0.15978 3.4042 0.38749 5.076 0.68063 1.6218-1.1254 3.251-2.1458 4.8596-3.0769-4.8193-1.4607-9.9257-2.3285-15.2-2.523-0.34142 0.63883-0.66828 1.285-0.98005 1.9378-0.43507 0.91087-0.84821 1.8325-1.2391 2.7636zm-3.9202-9.8027c0.97506-1.7091 2.038-3.3667 3.1821-4.9657-2.4621-6.01-4.108-12.641-4.7788-19.667-2.0934 2.7315-3.8953 5.6243-5.3866 8.6286 1.7355 5.774 4.0946 11.152 6.9833 16.004zm6.8099 3.8888c5.4571 0.35561 10.716 1.4233 15.644 3.1138 1.515-0.84689 3.0163-1.6364 4.4694-2.3633-5.2846-2.5313-11.148-4.2606-17.359-5.0378-0.99135 1.3825-1.9115 2.8139-2.7538 4.2872zm-2.6624-10.164c1.1753-1.549 2.4282-3.0388 3.752-4.4625-1.5782-7.0366-2.0013-14.691-1.0349-22.616-2.5577 2.089-4.8888 4.3949-6.9734 6.8749 0.4428 7.1932 1.9177 14.008 4.2563 20.203zm6.2508 4.7468c6.3103 0.96664 12.233 2.9095 17.52 5.6692 1.3341-0.65583 2.6763-1.2954 3.9379-1.8913-5.2579-3.5563-11.446-6.1769-18.207-7.6404-1.147 1.2332-2.2328 2.523-3.251 3.8624zm4.2375-4.8938c6.7799 1.667 12.94 4.4955 18.114 8.2577 1.1368-0.53553 2.042-0.95361 3.1346-1.4708 0.0889-0.037 0.17708-0.0743 0.26464-0.11178-0.20518-0.20236-0.41311-0.40322-0.62485-0.60138-4.7341-4.1416-10.607-7.3728-17.221-9.4547-1.2761 1.0655-2.5006 2.1947-3.6674 3.381zm-5.5976-5.5061c1.3462-1.3684 2.7598-2.6707 4.2344-3.9001-0.41655-7.2549 0.47959-14.967 2.9423-22.746 0.11854-0.36217 0.2412-0.72438 0.36806-1.0866-0.24329 0.12463-0.48491 0.25142-0.72478 0.38038-2.5266 1.3088-4.9218 2.8197-7.1728 4.4974-1.238 7.9748-1.0401 15.712 0.35282 22.855zm5.538-4.9554c1.4927-1.1731 3.0433-2.2732 4.6456-3.2939 0.3124-2.9921 0.87158-6.0306 1.6963-9.0858 1.3199-4.7716 3.3997-9.5905 6.4602-14.205-0.26179 0.0555-0.52317 0.10505-0.78453 0.1654-2.7699 0.63987-5.4147 1.5486-7.9166 2.6619-0.54248 1.3599-1.0222 2.7228-1.4434 4.0842-2.0073 6.705-2.8372 13.349-2.6575 19.674zm4.8521 6.1682c5.705 1.9793 10.82 4.8176 15.08 8.3569 0.82663 0.73117 1.6104 1.4916 2.3456 2.279 0.83204-0.38082 1.5938-0.752 2.3148-1.1567 0.068-0.0382 0.13143-0.0831 0.19821-0.12142-2.1126-3.1432-5.0649-5.949-8.5444-8.2975-2.2854-1.4836-4.7564-2.7932-7.3828-3.9111-1.3818 0.88192-2.7211 1.8343-4.0119 2.8507zm1.2451-10.357c1.1205-0.66745 2.2645-1.2966 3.43-1.8855 0.51874-0.26453 1.0434-0.52001 1.5736-0.76591 1.9989-7.109 5.8586-14.306 12.48-20.534-2.7442-0.20826-5.6127-0.0784-8.5041 0.37143-3.8697 5.3186-6.3376 10.969-7.7683 16.536-0.52919 2.1054-0.93076 4.2015-1.2111 6.2782zm4.0152 6.7352c1.8049 0.83349 3.5311 1.7586 5.1684 2.7694 4.242 2.7027 7.7716 6.0614 10.073 9.8782 0.69454-0.42372 1.307-0.85911 1.8864-1.3618-2.1288-5.4526-6.8454-10.127-12.848-13.546-0.44634 0.20461-0.88968 0.41704-1.3296 0.63678-1.001 0.50557-1.9849 1.0472-2.9496 1.6229zm5.6192-2.8462c5.7236 3.5483 10.113 8.2682 11.958 13.715 0.0588-0.0559 0.1182-0.0946 0.17605-0.15258 0.0775-0.0776 0.15482-0.15764 0.23234-0.23941 0.31454-0.42584 0.75714-1.0273 1.1497-1.5791-0.28366-1.2711-0.68872-2.5299-1.2173-3.7572-1.6215-3.5903-4.3658-6.8111-7.8593-9.5308-1.499 0.41633-2.9828 0.937-4.4391 1.5444zm-3.0276-7.2472c1.7459-0.73035 3.5458-1.3555 5.3875-1.8578 2.1908-4.2837 5.296-8.411 9.5686-12.077 1.5307-1.2526 3.1843-2.4271 4.949-3.5083-1.448-0.76251-3.1398-1.3868-5.0166-1.8225-0.35438-0.0768-0.71307-0.14693-1.0754-0.21023-0.26777-0.0468-0.55034-0.0717-0.82246-0.1113-6.7225 5.8663-10.774 12.722-12.991 19.587zm7.1306-2.2933c1.85-0.41987 3.7372-0.71372 5.6498-0.86443 0.70575-0.84727 1.4651-1.6761 2.281-2.4827 2.7284-2.6348 6.0485-4.9532 9.8384-6.7985-0.23447-0.62042-0.54987-1.2421-1.0093-1.8352-0.61661-0.79627-1.4539-1.5541-2.4698-2.2487-2.3465 1.3617-4.5021 2.8913-6.4395 4.5526-3.3353 2.9827-5.9063 6.2635-7.8505 9.677zm1.7492 7.636c2.7398 2.3405 4.9479 5.0073 6.4213 7.929 0.79256 1.6267 1.3661 3.3141 1.7256 5.0174 0.35246-0.51433 0.73303-1.0854 1.089-1.6915 0.26998-0.45972 0.52442-0.956 0.77516-1.4739-0.64196-2.8114-1.859-5.6046-3.67-8.1818-0.55992-0.78918-1.174-1.5553-1.8377-2.2968-1.5043 0.11324-3.0094 0.35148-4.5033 0.69759zm5.7462-8.6007c0.15498-0.005 0.31008-0.008 0.46533-0.0109 1.277-0.0136 2.5509 0.0455 3.8153 0.1748 1.3439-0.61046 2.6568-1.3708 3.6979-2.2577 1.3236-1.1277 2.3159-2.5328 2.6123-4.074 0.0953-0.49984 0.0934-1.0167 0.0392-1.543-3.9734 1.9354-7.4132 4.4072-10.171 7.2241-0.15552 0.16118-0.30838 0.32365-0.45927 0.48671zm0.20238 7.8333c0.12494 0.15591 0.24768 0.31288 0.36836 0.47075 2.0938 2.7554 3.5027 5.7736 4.2496 8.8135 0.18183-0.46589 0.35635-0.94802 0.48545-1.4348 0.4047-1.5251 0.49701-3.1408 0.0763-4.633-0.33091-1.1733-0.98064-2.2406-1.8961-3.0946-0.97219-0.0988-1.948-0.14199-2.9213-0.12703-0.12078 0.00085-0.24152 0.002-0.36233 0.005z"/>
	<path d="m160.88 130.68v-1.2058q0-0.6029 0-1.2058 0.20096-0.80386 0.20096-1.8087 0-1.6077-0.40193-3.4164-0.20097-1.8087-1.0048-3.8184l4.4212 3.4164 3.0145-4.0193q0.40194 1.2058 1.0048 2.6126 0.40194 1.2058 0.6029 3.0145 0.40193 1.8087 0.40193 4.0193 0 0.80386 0 1.6077 0 0.80386-0.20096 1.6077-0.40193-0.20097-1.0048-0.6029-0.40193-0.40193-1.2058-0.6029-0.80386-0.40193-1.8087-1.0048l-4.0193 1.4068zm-1.4068-13.063q-0.80386-3.0145-2.4116-6.23-1.6077-3.4164-6.23-9.8473 4.6222 2.0097 7.4358 4.6222 3.0145 2.6126 5.0242 5.0242 2.2106 2.8135 3.6174 6.029l-3.0145 3.4164-4.4213-3.0145zm-1.8087 27.733 0.6029 0.60289q0.40193 0.40194 0.80386 1.0048 0.6029 0.6029 1.6077 1.6077 0.6029 0 2.0097 0 1.4068-0.20096 2.4116-0.40193-1.2058 2.4116-2.4116 4.4212-1.0048 1.8087-2.2106 3.4164-1.0048 1.6077-1.8087 2.4116l-1.0048-4.6222-5.2251 0.40193q1.2058-1.4068 2.0097-2.8135 1.8087-2.8135 3.2155-6.029zm-1.2058 9.8473 1.4068 4.2203q-1.0048 1.6077-2.4116 3.0145-1.2058 1.2058-2.8135 2.6126-1.6077 1.2058-3.6174 2.0097v-3.6174l-3.2155-0.6029q1.2058-1.4068 2.4116-2.8135 1.0048-1.2058 2.0097-2.4116 1.0048-1.2058 1.8087-2.2106l4.4212-0.20097zm-8.4406 9.4454v3.0145q-1.8087 0.80386-3.8184 1.6077-1.6077 0.6029-4.0193 1.2058-2.2106 0.6029-4.6222 1.0048 2.8135-2.2106 5.0242-3.8184 1.8087-1.4068 3.4164-2.4116 1.6077-1.2058 1.2058-1.4068l2.8135 0.80387zm42.01-100.49q0 0.80386-0.80387 4.4212-0.6029 3.6174-3.8184 8.4406-3.0145 4.6222-9.6464 9.4454-6.4309 4.8232-18.087 8.0386v1.0048q5.627 2.0097 10.048 5.6271 3.8184 3.4164 7.0338 9.0435 3.2155 5.4261 3.2155 14.47 0 3.2155-0.6029 8.6415-0.60289 5.4261-2.6126 11.656-1.8087 6.23-5.4261 12.661-3.6174 6.4309-9.6464 11.656-5.828 5.0242-14.671 8.2396-8.6415 3.2154-20.7 3.2154-11.053 0-18.288-2.6126-7.0338-2.8135-11.254-7.2348-4.2203-4.4213-5.828-10.048-1.6077-5.627-1.6077-11.455 0-4.4213 1.6077-10.249 1.4068-5.828 4.2203-11.053 3.0145-5.2251 7.4358-8.8425 4.4212-3.6174 10.249-3.6174 1.0048 0 2.2106 0.40193 1.4068 0.40193 3.0145 2.0097 0.20097 0.20097-0.80386-1.6077t-2.0097-5.828q0.6029 0.80386 1.4068 1.6077 0.6029 0.60289 1.4068 1.2058 0.80387 0.40193 1.4068 0.40193 1.0048 0 1.2058-1.0048l2.2106 3.2155q0 0.20097 0.40193 0.80386 0.40193 0.40194 1.0048 1.0048 0.6029 0.60289 2.0097 1.4068v2.2106l1.0048 1.2058q0 1.0048 0.40193 2.0097 0.6029 2.2106 2.8135 4.2203-0.40193 0.40193-0.80386 1.2058-0.6029 1.2058-0.6029 2.4116 0 0.40193 0.20096 0.6029 0.20097 0.20096 1.2058 1.2058l-0.80386 0.40193q-0.6029 0.40194-0.6029 1.2058 0 0.6029 1.4068 1.8087 0 0.40193-0.6029 1.6077-0.40193 1.0048-1.0048 2.2106-0.6029 1.2058-1.4068 2.2106-0.80387 0.80386-1.4068 0.80386-0.6029 0-1.2058-0.6029v2.4116q-1.0048 0-1.8087 0.60289-0.80387 0.40194-1.8087 1.6077-0.80386 1.0048-1.6077 3.0145h-3.2154q0 0.6029-0.80387 0.80387-0.80386 0-1.6077 0h-0.80386q0 0.20096-0.20097 0.6029 0 0.40193-0.80386 0.80386 0.20096-0.40193 0.20096-1.8087 0-1.2058-0.80386-2.2106-0.6029-1.2058-2.2106-1.2058-1.2058 0-1.8087 1.0048t-1.0048 2.6126q-0.40193 1.4068-0.6029 3.0145 0 1.4068 0 2.2106 0 2.0097 0.6029 4.2203 0.80386 2.0097 2.6126 3.6174t5.0242 2.8135q3.4164 1.0048 8.6415 1.0048 7.2348 0 13.264-4.8232 6.029-4.8232 10.249-11.857 4.2203-7.0338 6.4309-15.072 2.4116-8.2396 2.4116-14.671 0-9.0435-3.8184-14.068-3.8184-5.2251-8.6415-7.8377-4.6222-2.6126-8.4406-3.6174t-3.8184-1.6077l1.0048-1.0048q11.656-2.4116 18.69-6.029 7.0338-3.8184 10.852-7.6367 3.8184-3.8184 5.0242-7.2348 1.2058-3.6174 1.2058-6.029 0-3.2155-2.2106-5.4261-2.0097-2.4116-5.0242-3.8184t-6.23-2.0097q-3.2154-0.6029-5.2251-0.6029-4.2203 0-9.0435 1.2058-4.8232 1.0048-9.0435 2.2106t-7.0338 2.2106-2.8135 0.80387q0-1.0048 2.2106-4.4213 2.2106-3.4164 7.0338-7.2348 4.8232-4.0193 12.661-7.2348 7.8377-3.2155 19.092-3.8184 8.4406 0.40193 15.072 3.0145 2.8135 1.2058 5.627 3.0145t4.8232 4.4213q2.2106 2.6126 3.4164 6.2299 1.4068 3.4164 1.4068 8.0386zm-77.77 84.602q0.40193 0 1.4068-0.6029 1.0048-0.6029 1.0048-1.2058 0-0.40193-0.20096-0.60289l2.2106-2.4116v-1.0048l-2.2106-1.0048q-1.0048 0-1.0048 1.0048t1.0048 1.0048q0 0.20097-0.20097 0.40194-0.20097 0.20096-0.6029 0.20096t-0.40193-0.6029v1.4068q-0.40193-0.40194-0.40193-1.2058t0-1.0048q-0.40194 0-0.40194 1.2058 0 1.0048 0.80387 2.0097 0 0.20096-0.20097 0.60289-0.20096 0.40194-0.40193 0.80387 0 0.20096-0.40193 0.6029l-1.0048-1.0048v1.0048q0 0.20096 0.20096 0.20096 0.20097 0.20097 0.80387 0.20097zm4.4212 0.6029q0.80387-0.80387 2.4116-2.0097 1.8087-1.2058 1.8087-2.0097-0.40193-0.40194-0.80387-0.80387-0.20096-0.6029-0.60289-1.0048-0.40194-0.40193-0.80387-0.6029-0.40193 0.40194-0.40193 1.0048 0 0.80387 0.20097 1.0048 0 0.20097 0.20096 0.40194-0.80386 0-1.6077 0.60289-0.60289 0.6029-1.6077 1.4068 0 0.80386 0 1.4068 0.20096 0.6029 1.2058 0.6029zm9.6464-11.656q0-1.0048-0.6029-1.6077-0.40193-0.80387-0.40193-1.8087h-1.0048l1.0048 3.4164q0 0.80386-1.2058 2.2106-1.2058 1.2058-1.2058 2.0097 0.40193 0.40194 1.0048 0.40194 0.40193 0 0.40193-0.20097v-0.20097q0-0.80386 1.0048-2.0097 1.0048-1.4068 1.0048-2.2106zm-1.0048-8.8425q0-0.80387-1.0048-2.8135-1.0048-2.0097-1.8087-2.0097-0.80387 0-0.80387 1.8087 0 0.40193 0 1.0048 0 0.6029 0.20097 2.0097l0.40193 0.80386q0.20097 0.40194 0.40193 0.80387 0.20097 0.40193 0.20097 0.80386h1.4068q0.80387 0 0.80387-0.6029 0.20096-0.80386 0.20096-1.8087zm-3.4164 8.8425q-0.6029 0-1.4068 1.6077-0.40194 0.80387-0.6029 1.6077l1.0048 1.0048q1.8087-1.8087 1.8087-5.4261 0-0.80387 0.20097-1.4068 0.40193-0.6029 0.40193-1.0048 0-0.80387-0.6029-0.80387-0.40193 0-0.40193 1.8087 0 1.0048 0 1.8087 0 0.80387-0.40193 0.80387zm-5.2251-16.278 3.2155-1.2058-2.2106 1.2058q0 1.0048 1.2058 1.0048t1.2058 0.6029q0 0.80387-1.2058 1.2058-0.6029 0.40193-1.2058 0.40193v1.0048q0.40193 0.40193 1.0048 0.40193 1.0048 0 1.8087-1.0048 0.80386-1.2058 0.80386-2.4116 0-0.40193-0.40193-1.2058-0.40193-0.80386-1.0048-1.4068-0.40193-0.80386-0.80387-1.2058-0.40193-0.6029-0.40193-0.6029 0 0.40193-1.0048 1.4068-0.6029 0.40193-1.0048 0.6029v1.2058zm0 17.283-2.2106-2.2106v2.2106q0.20096 0.40193 0.60289 0.60289 0.80387 0.40194 1.6077 0.40194 1.2058 0 2.4116-1.6077 0.6029-0.80387 0.80387-1.6077 0-0.80387 0.20096-1.6077 0.40194-2.0097 0.40194-3.2155-0.6029-0.60289-0.80387-1.8087 0-1.2058-1.4068-1.2058-0.6029 0-0.6029 0.40193 0 0.20097 0.20097 0.6029 0.40193 0.40194 1.4068 1.6077 0 1.0048-0.80386 1.0048-0.6029 0-0.6029 1.0048 0 0.6029 0.6029 1.0048 0.60289 0.20097 0.60289 1.0048 0 0.6029-0.60289 0.6029-0.6029 0-1.0048-0.40193-0.20097-0.6029-0.80387-0.6029-0.40193 0-0.80386 0.40193-0.20097 0.20097-0.40193 0.20097l1.2058 3.2155zm-2.2106-16.077q-1.6077-2.2106-3.0145-2.6126-1.4068-0.40193-2.6126-0.40193-1.4068 0-2.6126 0.6029-1.0048 0.6029-1.8087 1.4068-1.0048 0.80386-1.8087 2.0097 0.40193-0.20096 1.6077-0.20096 1.0048 0 1.8087 0.20096 1.0048 0.20097 2.0097 0.40193 1.0048 0.40194 2.2106 0.6029 1.4068-1.4068 2.8135-1.8087 0.80387-0.20097 1.4068-0.20097zm-10.852 22.91q0.6029-1.8087 1.0048-4.2203 0.6029-2.4116 3.6174-2.4116 0.80386 0 2.0097 0.40193 0.6029 0.20097 1.0048 0.40194 0-0.80387-1.6077-1.4068-1.6077-0.80386-1.6077-1.8087-0.40193-0.40193-1.4068-0.40193-0.80387 0-2.0097 0.40193 0.80386-1.4068 2.0097-1.4068 0.80386 0 1.2058 0.20096 0.40194 0 0.80387 0.40193 0.6029 0.40194 1.2058 1.2058 0.80386 0.6029 2.4116 1.8087-0.6029-1.4068-0.6029-2.8135 0-2.2106 1.4068-3.6174 0.6029-0.80386 1.4068-1.0048-1.2058-0.6029-2.6126-0.6029-1.0048 0-2.6126 0.40194-0.80387 0.20096-1.2058 0.20096 0.40193-0.40193 1.4068-0.6029 1.2058-0.20096 2.2106-0.40193 1.2058-0.20096 2.8135-0.20096-1.2058-0.6029-2.6126-0.6029-1.2058 0-2.4116 0.6029-1.0048 0.40193-1.8087 0.80386-1.0048 0.80386-1.8087 1.4068 1.6077-2.2106 3.6174-2.8135 2.2106-0.6029 3.6174-0.6029h1.4068q-0.6029-0.6029-0.6029-1.6077 0-1.2058 0.20096-1.8087l0.40194-0.80387q-2.0097 0.80387-2.8135 2.0097-0.40193 0.6029-0.40193 1.2058-1.2058-0.40193-3.2155-0.40193-1.8087-0.20097-3.4164-0.40194-2.0097-0.20096-4.0193-0.20096-4.0193 4.6222-5.627 10.249-1.6077 5.627-1.6077 10.651 0 6.6319 2.2106 10.651 1.2058-3.6174 2.6126-6.029t2.6126-4.0193q1.4068-1.8087 2.8135-2.8135zm66.721-7.8377q1.2058-5.0242 1.2058-9.2444 0-9.6464-4.4213-15.675-4.4212-6.029-9.6464-9.4454-6.23-4.0193-13.867-5.828 4.0193 2.8135 7.4358 7.2348 2.8135 3.8184 5.2251 9.8473 2.4116 5.828 2.4116 14.269 0 8.2396-3.2155 15.675-3.0145 7.4358-7.6367 13.465-4.4212 5.828-9.2444 9.6464-4.8232 3.6174-8.0386 4.4212 0.40193 0.20097 1.0048 0.20097h2.6126q3.0145 0 8.0386-1.0048 5.0242-1.0048 10.249-4.4213 5.2251-3.6174 10.048-10.45 5.0242-6.8328 7.8377-18.69zm-24.72-44.191q3.0145-0.40193 7.8377-2.6126 5.0242-2.4116 9.8473-6.029 4.8232-3.8184 8.2396-8.6415 3.6174-5.0242 3.6174-10.852 0-5.828-3.4164-9.2444-3.2154-3.4164-7.2348-5.4261-4.8232-2.2106-10.651-3.2155 2.4116 0 6.6319 0.6029 4.4213 0.6029 8.4406 2.4116 4.2203 1.8087 7.2348 5.2251 3.2154 3.2155 3.2154 8.4406t-1.8087 9.2444q-1.6077 4.0193-3.8184 6.8328-2.4116 3.2155-5.4261 5.627 4.0193-1.8087 7.4357-4.8232 2.8135-2.6126 5.2251-6.6319t2.4116-10.249q0-7.6367-4.0193-11.656-3.8184-4.0193-8.4406-6.029-5.4261-2.2106-12.259-2.6126-5.828 0-11.053 1.8087-5.2251 1.6077-9.2444 3.6174-4.8232 2.2106-8.8425 5.2251 4.6222-3.0145 9.4454-3.6174 5.0242-0.80387 7.8377-0.80387 3.0145 0 7.0338 1.0048 4.0193 0.80387 7.6367 2.6126t6.23 4.8232q2.6126 2.8135 2.6126 6.8328 0 5.828-2.0097 10.249-2.0097 4.4213-5.627 7.8377-3.4164 3.2155-7.8377 5.627-4.4212 2.4116-9.2444 4.4212zm19.293 37.38 4.0193 1.8087-3.4164 14.068-4.2203 0.40193-3.2155-3.2155 2.8135-12.058 4.0193-1.0048z"/>
</svg>
