<svg fill="#c60d22" xmlns="http://www.w3.org/2000/svg" height="273" width="258" version="1.1" viewBox="0 0 273 258">
	<path d="m32.194 31.631c-2.769 6.4882-5.7295 13.009-8.796 19.207-2.0126 4.0679-4.1258 8.1094-6.397 11.822-3.9133 6.3971-8.7845 12.47-11.112 20.575-1.2366 4.3063-1.7381 9.1873-1.1612 14.077 0.01273 0.1109 0.02608 0.22175 0.04004 0.33256 0.62776 5.0097 2.4171 9.8468 5.091 13.262 2.7373 3.4957 6.2578 5.2475 9.3943 4.831 3.1349-0.41631 5.8293-2.9966 7.2685-6.7405 1.1775-3.063 1.5398-6.9724 0.88705-10.668-0.23377-1.3235-0.60362-2.6233-1.0851-3.8354-0.86922-2.1859-2.1129-4.1152-3.609-5.3794-0.99362-0.83962-2.0935-1.3948-3.2001-1.5586-1.1068-0.16378-2.2224 0.0685-3.2058 0.72154-0.98352 0.65314-1.8291 1.7292-2.3868 3.1189-0.55801 1.3903-0.8192 3.0803-0.70778 4.7998l0.000398 0.009c0.08434 1.3228 0.40282 2.6866 1.0277 3.7137 0.31267 0.51394 0.69707 0.9311 1.1155 1.1777 0.41846 0.24659 0.86888 0.31562 1.2721 0.16901 0.30764-0.11183 0.58374-0.34323 0.82274-0.63268 0.23895-0.28938 0.44353-0.63609 0.6393-0.99152 0.39254-0.71276 0.75722-1.4813 1.2867-1.9664 0.62464-0.57234 1.4528-0.68268 2.2072-0.29544 0.75411 0.38722 1.4241 1.2717 1.7711 2.3429 0.36264 1.1193 0.37367 2.3704 0.22327 3.4973-0.22968 1.7314-0.82101 3.291-1.6691 4.4394-0.84849 1.1489-1.9561 1.8907-3.1634 2.1287-1.2073 0.23809-2.5094-0.0238-3.7452-0.74365-1.2358-0.71986-2.3959-1.8905-3.3579-3.3672-1.5914-2.4429-2.5815-5.6357-2.9331-8.8841-0.03378-0.30534-0.06182-0.61091-0.0843-0.91606-0.26083-3.5474 0.21036-7.0136 1.0952-10.137 2.1639-7.6393 6.756-13.316 10.48-19.283 2.0193-3.2357 3.8921-6.7258 5.6131-10.333-0.92846 12.759-0.51962 25.614 1.1369 38.289 2.7499 21.096 8.976 41.795 18.797 60.72 9.5994 18.51 22.792 35.308 39.26 48.26 17.026 13.369 37.479 22.231 58.842 25.652 11.951 1.9085 24.189 1.6302 36.05-0.49974l0.00002-0.00001c12-2.1457 23.705-6.2116 34.332-12.298 10.347-5.9172 19.659-13.877 26.598-23.721 3.373-4.803 6.1088-10.031 8.1601-15.514 6.9534-4.3581 13.547-10.328 19.157-17.832 0.004-0.054 0.009-0.10789 0.0129-0.16186 0.32698-4.1643 0.28627-8.3287-0.11062-12.447-2.0718 4.36-4.5387 8.3402-7.301 11.866-2.787 3.4311-5.8005 6.4808-8.961 9.1391 0.43465-1.9577 0.78592-3.9342 1.0519-5.9227 1.1355-1.1345 2.2437-2.3266 3.3199-3.5757 4.4374-5.2636 8.1604-11.732 10.746-19.092-0.84495-4.0982-2.0486-8.1191-3.5989-12.014-1.564 9.5724-5.1423 18.035-9.9226 24.784-0.0638-2.0284-0.23737-4.0529-0.51792-6.0624 4.0341-7.2208 6.7092-15.992 7.2129-25.711-1.029-1.9454-2.1506-3.8483-3.3631-5.702-1.119-1.7619-2.3571-3.4816-3.7129-5.1453 0.42282 2.4212 0.64588 4.7988 0.70149 7.1159 0.14832 7.1463-0.99138 13.816-3.0632 19.746-0.62338-1.9308-1.3492-3.8286-2.1749-5.6822 0.84822-3.637 1.3347-7.5028 1.3845-11.542 0.0472-4.9859-0.70149-10.292-2.629-15.719-2.55-2.3063-5.376-4.4368-8.4735-6.3402-1.1597-0.67905-2.34-1.3077-3.5382-1.8855 0.90885 1.1749 1.7495 2.3766 2.5202 3.5982 4.7484 7.9815 6.2073 15.973 5.8902 23.185-1.1542-1.6912-2.4266-3.3151-3.8148-4.8422-0.4549-4.6515-1.7952-9.5174-4.4273-14.386-2.1716-3.8269-5.1017-7.4904-8.7266-10.741-4.7908-1.2894-9.7484-1.8386-14.726-1.626 9.5379 4.3076 16.281 11.407 19.602 18.846 0.19124 0.43787 0.37108 0.87558 0.53978 1.313-0.31782-0.20432-0.63928-0.40391-0.96436-0.59861-4.8043-2.8457-10.289-4.4157-15.837-4.6197l-0.20708 5.6422c4.6223 0.16927 9.2143 1.4765 13.159 3.8313 0.26078 0.15358 0.51908 0.31156 0.77492 0.4738-0.39821 0.0609-0.79206 0.13086-1.1812 0.20969-6.8491 1.3945-12.067 5.5863-14.347 10.406 1.3252-0.0606 2.7108 0.0897 4.0105 0.42944 1.7051-1.8252 3.9114-3.351 6.4862-4.3571 3.3745-1.2839 7.3943-1.5902 11.629-1.0574 1.2028 1.3274 2.3186 2.7494 3.3448 4.2365-6.4412-1.7355-12.754-1.6492-17.326 0.77795-0.66307 0.36943-1.2918 0.78131-1.8825 1.2296 0.30132 0.14888 0.59038 0.31007 0.86445 0.48318 0.89184 0.46785 1.7739 1.1405 2.6419 1.9668 3.1306-0.79163 6.805-0.74137 10.612 0.0184 3.1305 0.69045 6.3078 1.8038 9.4413 3.3261 0.7434 1.6686 1.3979 3.3788 1.9606 5.1194-4.9822-3.1175-10.212-5.1143-15.256-5.9236-1.5937-0.20326-3.1475-0.2712-4.6269-0.19265 0.5463 0.67902 1.0851 1.4048 1.6153 2.1633 0.59193 0.90385 1.1426 1.8447 1.6504 2.8156 6.3284 1.3602 12.87 4.7043 18.631 9.8792 0.25537 1.8108 0.41459 3.634 0.47489 5.4586-5.1713-5.7512-11.337-9.7419-17.503-11.819 0.77521 1.9748 1.3858 4.0303 1.8198 6.1178 4.6286 2.5206 9.0289 6.211 12.68 10.991 0.87426 1.177 1.7142 2.4044 2.5163 3.6792-0.24321 1.8285-0.56502 3.6469-0.96358 5.4484-1.7896-3.472-3.8576-6.6506-6.142-9.4869-2.2767-2.6767-4.8163-4.9436-7.496-6.7816 0.21086 2.0801 0.2427 4.1627 0.084 6.2013-0.002 0.0313-0.005 0.0625-0.007 0.0938 4.5972 4.9661 8.426 11.314 10.995 18.657-1.8874 5.0586-4.4059 9.877-7.508 14.284-6.3617 9.0754-15.07 16.485-24.787 22.07-10.007 5.7426-21.108 9.5888-32.52 11.639h-0.00001c-11.285 2.018-22.893 2.2906-34.161 0.4822-20.41-3.25-40-11.73-56.243-24.5-15.764-12.37-28.449-28.55-37.737-46.42l-0.000005-0.00001c-9.501-18.29-15.531-38.37-18.209-58.85-1.605-12.31-2.003-24.787-1.104-37.154 1.1934 3.7187 2.7787 7.1483 4.7036 10.188 3.8954 6.1512 8.0799 9.6737 11.586 16.045 1.3133 2.3863 2.3935 5.0272 2.9308 7.814 0.04643 0.24089 0.08866 0.48312 0.12649 0.7263 0.40717 2.5678 0.3313 5.2632-0.41635 7.5895-0.45382 1.412-1.1557 2.6886-2.059 3.6649-0.90337 0.97649-2.0151 1.655-3.2195 1.9041-1.205 0.24906-2.5023 0.0621-3.703-0.59089-1.2009-0.65315-2.293-1.7703-3.0731-3.2035-0.50741-0.9313-0.88657-2.0327-0.86736-3.13 0.01833-1.0504 0.41965-2.0142 1.0432-2.5556 0.62338-0.54122 1.4514-0.65388 2.2025-0.32873 0.63412 0.27444 1.1961 0.83128 1.7671 1.317 0.2863 0.24352 0.57894 0.47408 0.88978 0.64592 0.31079 0.17182 0.64047 0.28254 0.96643 0.28581 0.42701 0.004 0.83701-0.18214 1.1674-0.49895 0.33031-0.31691 0.5826-0.75964 0.74416-1.2563 0.32202-0.99003 0.28281-2.168 0.05284-3.2551l-0.0014-0.007c-0.29701-1.4133-0.91163-2.7406-1.7294-3.7813-0.8178-1.0409-1.8407-1.8006-2.9207-2.1901-1.0803-0.38959-2.2179-0.41221-3.2795-0.0752-1.0618 0.33711-2.0435 1.0294-2.857 1.9915-1.2276 1.4518-2.0289 3.5065-2.3203 5.7736-0.16053 1.2527-0.16425 2.5623-0.002 3.8578 0.45765 3.6537 2.164 7.043 4.4444 9.2497 2.7906 2.7005 6.3119 3.5478 9.3175 2.5773 2.9978-0.96798 5.4736-3.6967 6.8136-7.1103 1.3091-3.3346 1.5935-7.3456 1.0587-11.139-0.01198-0.0849-0.02434-0.16966-0.0371-0.25437-0.545-3.711-1.848-7.309-3.563-10.498-3.699-6.872-7.672-10.027-11.677-16.823-2.032-3.447-3.622-7.333-4.819-11.484-1.828-6.341-2.719-13.225-2.523-20.344z"/>
	<path d="m116.36 151.02q4.6222 1.2058 6.029 3.0145t1.4068 3.4164q0 2.2106-1.2058 2.2106-1.6077 0-2.8135-1.2058-1.0048-1.4068-1.8087-3.0145-0.80386-2.0097-1.6077-4.4213zm38.385 2.8135-2.4116-1.6077q1.8087-1.0048 4.0193-1.8087 2.2106-0.80386 3.2155-1.6077l2.4116 4.2203-7.0338 4.0193-0.20097-3.2154zm-13.063 8.2396q-2.2106 0.40193-4.0193 0.60289-1.6077 0-3.0145 0.20097-1.6077 0.20097-3.0145 0.20097l3.2155-4.4213v-4.6222l6.6319 0.40194 1.0048 3.4164-0.80386 4.2203zm33.159-21.704q-0.40193 0-1.0048-0.20096-0.40194-0.20097-1.0048-0.20097-0.6029 0-1.4068-0.40193 2.2106-3.0145 4.0193-5.828 2.0097-3.0145 3.6174-7.0338 1.8087-4.0193 3.0145-9.4454 1.4068-5.627 2.4116-14.068 0.20096 1.2058 0.20096 2.6126 0 1.2058 0 2.4116 0 5.0242-1.0048 9.6464t-2.4116 8.8425q-1.4068 4.0193-3.2155 7.6367-1.8087 3.4164-3.2154 6.029zm-30.145 17.082-1.4068-3.0145q1.6077 0 3.8184-0.80387 2.4116-0.80386 4.0193-0.80386l2.2106 1.4068v3.4164q-2.6126 1.6077-5.2251 2.8135-2.4116 1.0048-4.0193 1.0048l0.6029-4.0193zm16.278-7.0338v-2.4116q2.2106-2.2106 4.6222-3.6174 2.6126-1.4068 4.8232-4.2203l2.6126 0.60289v1.2058q-3.0145 3.6174-5.0242 5.4261t-4.6222 4.2203l-2.4116-1.2058zm21.1-123q3.0145 0 5.627 0.40194 2.6126 0.40193 4.6222 1.0048 2.0097 0.60289 3.2154 1.2058 1.2058 0.40193 1.2058 0.6029-10.852 0-24.116 7.0338-13.264 6.8328-24.92 19.695-11.455 12.862-19.293 30.949-7.8377 17.886-7.8377 39.992 0 1.2058 0.6029 3.6174 0.80386 2.4116 2.0097 4.8232 1.4068 2.4116 3.6174 4.2203 2.2106 1.6077 5.2251 1.6077 1.4068 0 2.4116-0.20097 1.0048-0.20096 2.0097-0.6029 0.80386-0.40193 1.8087-0.80386 0.6029 1.0048 0.6029 1.6077 0 1.0048-0.6029 2.6126-0.60289 1.4068-1.0048 2.4116 11.656 0 19.092-4.8232 7.6367-4.8232 11.857-11.857t5.828-14.871q1.6077-8.0386 1.6077-14.47 0-3.6174-1.2058-6.4309-1.0048-2.8135-2.6126-4.6222-1.6077-1.8087-3.4164-2.6126-1.8087-1.0048-3.2154-1.0048-4.2203 0-6.6319 1.0048-2.2106 0.80386-3.2155 1.8087-1.2058 1.2058-1.4068 2.6126 0 2.6126 2.8135 2.6126 0.80387 0 2.0097-1.2058 0.6029-0.60289 1.0048-1.4068 0.20097 0.20097 0.20097 0.6029t-0.40193 0.6029q-0.20097 0.20096-0.20097 0.6029 0 0.60289 1.0048 1.2058 1.2058 0.6029 1.4068 1.6077l2.4116 1.2058q-0.20097 1.0048-0.40194 1.8087 0 0.6029 0 1.2058 0 2.4116 0.6029 3.6174 0.40193 0.80386 0.80387 1.2058l-1.0048 2.0097q0.40193 0 0.80386 0.80386 0.20097 0.40193 0.20097 0.6029l-2.2106 6.6319q-1.8087 0.80386-1.8087 1.8087 0 0.80387 0.20096 1.0048l0.40193 0.40193h-2.0097q-0.40193 0-0.6029 0.80387-0.20096 0.6029-0.40193 1.6077-0.20096 1.0048-0.20096 2.2106-1.8087 0-3.0145 0.6029-1.2058 0.40193-2.0097 1.0048-0.80386 0.80387-1.6077 1.6077l-2.4116-1.0048-1.0048 2.2106q-1.4068 0-2.4116 0.20096-1.0048 0.20097-1.8087 0.40194-0.80387 0.40193-1.6077 0.60289l-3.2155 1.0048q0.20097-0.20096 0.20097-0.80386 0-1.0048-1.2058-1.2058-1.0048-0.40193-2.2106-0.40193-0.40193 0-0.80386 0.20097-0.40193 0-0.80387 0h-0.80386l3.4164-2.2106q-3.8184-1.2058-6.029-3.4164t-3.4164-4.6222q-1.2058-2.6126-1.6077-5.0242-0.40193-2.4116-0.40193-4.2203 0-7.4357 3.6174-13.465 3.8184-6.2299 9.8473-10.45 6.029-4.4213 13.465-6.8328 7.4357-2.4116 14.871-2.4116h1.2058q1.8087 0 5.627 0.80386 3.8184 0.6029 7.6367 3.8184 3.8184 3.0145 6.6319 9.2444 2.8135 6.23 2.8135 17.283 0 15.675-5.2251 27.331t-13.666 19.494q-8.4406 7.6367-18.891 11.455-10.45 3.6174-20.9 3.6174-3.4164 0-6.8328-0.80387-3.4164-0.80386-6.8328-1.4068-0.40194 5.2251-2.8135 6.6319-2.2106 1.6077-4.2203 1.6077-0.60289 0-1.8087 0t-2.2106-0.20097q-1.4068 0-2.8135-0.20096 0.6029-1.4068 0.6029-3.0145 0-5.4261-2.0097-9.2444-1.8087-4.0193-4.0193-8.4406-2.2106-4.4212-4.0193-10.249-2.0097-5.828-2.0097-15.072 0-17.484 4.0193-31.753 4.2203-14.269 11.053-25.523 7.0338-11.254 16.077-19.293 9.0435-8.2396 18.69-13.666 9.8473-5.4261 19.695-8.0386 10.048-2.6126 18.69-2.6126zm-48.232 82.999q-0.20097 0.40193-0.20097 0.80386v2.0097q0 2.2106 1.0048 4.4213 1.0048 2.2106 4.4213 2.2106 1.4068 0 3.6174-0.6029-0.40194-0.40193-0.6029-1.0048-0.40193-1.2058-0.40193-3.4164-2.0097-0.6029-3.6174-1.4068-1.4068-0.6029-2.6126-1.2058-1.2058-0.80386-1.6077-1.8087zm13.465 14.671q1.0048-1.0048 1.6077-2.2106 0.60289-1.4068 0.60289-2.4116l-1.0048-1.2058h-1.2058q0 0.40194 0.20096 1.0048 0.40193 1.2058 0.40193 1.6077 0 0.80387-0.60289 0.80387-1.0048 0-1.0048-0.20097-0.20097 0 0-0.20096l-0.20097 2.8135-1.0048-3.4164v3.4164l-1.0048-3.4164q-0.40193 0-0.80386 0.20096-0.6029 0.40194-0.6029 0.80387 1.0048 0 1.0048 0.80386 0 0.6029-0.6029 1.2058t-0.6029 0.80386q0 0.40193 1.6077 0.40193 1.0048 0 1.8087-0.20096 1.0048-0.20097 1.4068-0.6029zm0-12.46q-0.20097 0-0.20097-0.20096v-1.0048q0-1.4068 0.80386-3.4164 0.80387-2.0097 4.0193-3.2155h-5.828q-0.6029 0-1.0048-0.20097-1.0048-0.40193-1.0048-1.8087 0.20097 0.40193 0.40193 0.6029 0.20097 0.60289 1.0048 0.60289 0.20097 0 0.6029-0.40193l2.4116 0.6029q0-1.0048 0.20097-1.0048 0.40193 0 0.80386 0.40193 0.40194 0.20097 1.4068 0.20097 0.40193 0 1.0048-0.20097 0.60289-0.20096 0.40193-0.20096-0.6029 0-2.4116-0.40194-1.8087-0.60289-1.8087-2.8135-0.40193-0.80387-0.80386-1.4068-0.40194-0.6029-0.40194-1.4068 0-1.6077 0.40194-3.2154 0.60289-1.6077 1.2058-2.8135l-3.8184 0.40193q-1.4068 1.0048-3.2155 2.2106-1.6077 1.2058-3.2155 3.0145-1.4068 1.8087-2.4116 4.0193t-1.0048 5.0242l3.4164 3.4164q1.4068 1.4068 2.8135 2.8135 1.6077 1.2058 3.0145 1.6077l-0.40193 0.40193q-0.20097 0.20097-0.20097 1.0048 0 0.80387 0.6029 2.0097 0.20097-0.40193 0.6029-1.0048 0.80386-1.2058 2.4116-1.2058-1.4068-1.0048-2.4116-2.4116-1.0048-1.2058-1.8087-2.8135-0.80386-1.6077-1.2058-3.8184 0.80386 1.8087 1.6077 3.4164 0.80386 1.4068 1.8087 2.8135 1.0048 1.2058 2.2106 1.6077-0.80387-1.0048-1.6077-2.0097-0.6029-1.0048-1.2058-1.8087-0.40193-1.0048-0.40193-2.0097l1.2058 2.4116q1.0048 2.2106 2.0097 2.2106zm9.0435 9.0435q0-0.6029 0.20097-1.2058 0.20096-0.6029 0.20096-1.2058 0-0.40193-0.20096-0.40193-0.20097-0.20096-1.4068-0.6029-0.40193 0-0.80386 0.20097t-0.80387 0.40193q-0.40193 0.20097-0.60289 0.40193h-1.0048l2.0097 2.4116-2.0097-1.2058q-2.4116 1.6077-2.4116 2.6126 0 0.80386 1.0048 0.80386 1.8087 0 3.2155-0.60289 1.6077-0.80387 2.6126-1.6077zm-0.20097-5.828q0.40194 0.40193 0.6029 0.40193 0.6029 0 0.80387-1.0048 0.40193-1.2058 2.2106-1.4068 0.20097-1.0048 0.40193-1.8087 0.20097-0.80387 0.40194-1.4068 0.20096-0.80386 0.20096-1.2058 0-0.80387-1.2058-1.2058-0.6029-0.20096-1.0048-0.20096v3.0145q0 0.80386 0.20096 1.8087 0 0.40193-1.4068 1.6077-1.2058 1.0048-1.2058 1.4068zm6.8328-5.627t-0.40193-0.20096q-0.40193 0-0.80387 0.40193-0.40193 0.20096-0.40193 1.0048v3.0145q-0.6029 0-1.8087 0.80386-0.6029 0.40194-1.0048 0.80387 0 0.40193 0.20096 0.6029 0.20097 0.60289 1.0048 0.60289 0-1.0048 0.6029-1.2058 0.6029-0.20097 1.4068-1.2058 1.0048-0.80386 1.0048-2.2106 0.20097-1.4068 0.20097-2.2106v-0.20097zm-3.2155-8.6415 1.0048 1.2058h-1.0048q0 0.20096 0.20097 0.40193 0.40193 0.40193 0.80386 0.40193v1.2058q-0.40193 0-0.6029 0.20096-0.40193 0.40194-0.40193 1.0048h2.0097q0.40194 0 0.6029-0.60289 0.20097-0.80387 0.20097-1.8087t-0.40193-2.6126q-0.20097-1.6077-1.4068-1.8087l-1.0048 1.0048v1.4068zm-2.4116-2.4116q-2.2106 0.6029-3.2155 1.0048-1.0048 0.20096-1.6077 0.40193l-0.80386 0.20097q0 0.20096 1.4068 0.40193 1.6077 0 2.0097 1.6077 0-0.80387 1.2058-1.2058l1.2058 1.4068q-0.80387 0-1.6077 0.40194-0.40193 0.20096-0.80387 0.20096v1.2058h2.2106l2.4116-1.2058-2.4116-2.0097q1.0048-0.40193 1.2058-1.0048 0.40193-0.80386 0.80386-1.2058l0.40193-1.2058q-0.40193-0.40193-0.80386-0.6029t-0.80387-0.40193q-0.40193-0.20097-0.80386-0.20097l-1.0048 1.2058h2.2106q0 0.40193-0.20097 0.6029-0.20097 0-0.40193 0.20096-0.40193 0.20097-0.6029 0.20097zm-4.4212 7.8377-1.0048 1.0048h3.2154l-3.2154 1.4068 2.0097 1.0048h-2.0097l2.0097 1.0048h1.2058q0 0.6029-1.2058 1.0048-0.6029 0.20096-1.0048 0.20096-0.40194 0-0.40194 0.40194 0 0.40193 0.20097 0.60289 0 0.20097 0.20097 0.20097 0.40193 0.40193 0.40193 1.0048 0 0.40193-0.20097 0.6029 0 0 0 0.20097-0.20096 0.20096-0.20096 0.40193-1.4068 0-2.0097 0.20096-0.6029 0.20097-1.0048 0.40194-0.40194 0.40193-0.40194 0.60289h2.4116q0.40193 0 0.80386-0.60289 0.20097-0.20097 0.20097-0.6029 0.60289-1.6077 2.0097-2.6126 0.80386-0.6029 1.4068-0.80387 0-0.40193 0.20097-1.2058 0-0.6029 0-1.2058 0.20096-0.80386 0.20096-1.4068 0-1.4068-0.40193-1.8087h-3.4164zm29.341-4.0193q0 9.2444-3.0145 18.087-2.8135 8.8425-8.2396 15.876-5.4261 7.0338-13.264 11.455-7.8377 4.2203-17.886 4.2203-3.2155 0-6.8328-0.6029 0 0.40194-0.20097 1.6077-0.20097 1.0048-0.40193 2.0097-0.40193 1.2058-0.6029 2.8135l-5.4261 6.23q1.0048 0 2.8135 0 2.0097-0.20097 3.0145-0.20097 11.053 0 20.9-4.6222 9.8473-4.8232 17.082-12.661 7.2348-8.0386 11.455-18.489 4.2203-10.45 4.2203-21.905 0-2.8135-0.80386-7.2348-0.6029-4.4212-2.4116-8.4406-1.8087-4.2203-5.2251-7.0338-3.2155-3.0145-8.6415-3.0145h-1.0048q4.0193 1.2058 7.2348 3.8184 2.8135 2.2106 5.0242 6.6319 2.2106 4.2203 2.2106 11.455zm-68.529 25.322q0-13.867 2.6126-25.121 2.8135-11.455 7.0338-20.298 4.2203-9.0435 9.0435-15.675 5.0242-6.6319 9.2444-11.053 4.4212-4.6222 7.4357-7.2348t3.6174-3.4164q-10.048 8.0386-17.886 17.283-7.6367 9.0435-13.063 18.891-5.2251 9.6464-8.0386 19.695-2.8135 10.048-2.8135 19.896 0 5.4261 0.6029 9.8473 0.60289 4.2203 2.2106 7.8377 1.8087 3.6174 5.0242 6.6319 3.2154 3.0145 8.6415 5.828-0.6029 0-2.0097-0.40194-1.2058-0.40193-2.8135-0.80386-1.4068-0.40193-2.8135-0.80387-1.4068-0.40193-2.0097-0.40193-2.8135 0-3.0145 2.8135 0 1.8087-0.20096 3.2154-0.20097 1.4068-0.6029 2.4116-0.40193 1.2058-0.80386 2.2106-5.2251-12.862-7.2348-20.298-1.8087-7.6367-1.8087-11.053 0-13.867 3.2155-26.126t9.0435-22.91q6.029-10.651 14.068-19.695 8.2396-9.0435 17.886-16.479-10.249 6.2299-19.092 15.876-8.6415 9.4454-15.273 20.9-6.4309 11.254-10.249 23.915-3.6174 12.46-3.6174 24.518 0 8.0386 2.0097 14.871 2.0097 6.6319 4.6222 11.455 3.0145 5.828 6.8328 10.45 0.80386-0.80387 1.4068-1.6077 0.6029-0.80387 1.2058-1.6077 0.6029-0.80386 1.2058-1.6077 0.40194 0.40193 1.4068 0.80387 1.0048 0.20096 1.6077 0.20096 1.6077 0 3.6174-0.80386 2.0097-0.80387 3.2155-1.4068 0-0.80387-0.40193-1.6077-0.40193-0.80387-0.80387-1.6077-0.60289-0.80387-1.0048-1.6077 2.0097-0.40193 3.2155-1.2058 1.2058-0.80386 2.0097-1.6077 0.80386-0.80387 1.2058-2.0097-5.828-2.0097-9.4454-5.0242-3.4164-3.2154-5.2251-6.23-1.8087-3.2154-2.4116-5.828t-0.6029-4.0193z"/>
</svg>
