<svg fill="#353289" xmlns="http://www.w3.org/2000/svg" height="273" width="258" version="1.1" viewBox="0 0 273 258">
	<defs>
		<filter id="f1">
			<feOffset in="SourceAlpha" dx="0" dy="0" />
			<feMorphology operator="dilate" radius="10"/>
<!--			<feGaussianBlur stdDeviation="5" />-->
			<feComponentTransfer>
				<feFuncA type="linear" slope="0.5" />
			</feComponentTransfer>
			<feBlend in="SourceGraphic" mode="normal" />
		</filter>
	</defs>
	<path d="m219.65 243.81c3.1839-4.0553 6.2039-8.2901 9.05-12.685 8.913-13.761 16.122-29.092 21.327-45.396 3.5284-11.004 6.1546-22.498 7.7171-34.346l-14.233 0.56888c-0.41993-10.472-1.7315-20.911-3.9899-31.164-4.5062-20.491-12.961-40.262-25.612-57.171-13.095-17.463-30.691-31.424-50.6-40.329-11.165-4.9864-23.168-7.9134-35.283-8.9334h-0.00001c-12.254-1.044-24.729-0.13587-36.694 3.0236-11.652 3.0664-22.839 8.4132-32.227 16.233-2.0826 1.7432-4.0582 3.607-5.9184 5.5771-9.1658 0.296-18.903 2.5169-28.466 6.8331-2 3.8131-3.7306 7.772-5.1752 11.849-4.0193 11.355-5.2988 23.395-3.8216 35.203 0.61218 4.8935 1.6978 9.7472 3.258 14.496 1.835 5.9048 4.7316 11.758 8.7402 17.279 1.603 2.2077 3.3837 4.3621 5.3455 6.4454 7.4881 7.5635 16.754 12.669 26.901 14.93-8.8004-8.3242-13.213-18.708-13.559-27.937-0.0647-2.2808 0.10414-4.4674 0.46425-6.5544 2.1023 0.25662 4.1614 0.30197 6.1393 0.11617 7.9076-0.76406 14.291-5.2473 17.032-11.009-1.3954-0.30186-2.9243-1.0973-3.6898-1.9993-0.33181-0.26922-0.65235-0.64006-0.96485-1.0945-0.78151-1.1365-1.5127-2.7958-2.2441-4.6966-0.59238-1.7983-1.0033-3.707-1.2339-5.6608-0.55652-4.7148-0.0632-9.6924 1.4628-14.017 0.69411-1.9704 1.5381-3.9033 2.5154-5.7704-3.8513-6.5847-6.3926-14.486-7.1139-23.134 1.656-1.7535 3.4129-3.4092 5.2625-4.9527 8.3569-7.0124 18.555-11.848 29.261-14.699 11.028-2.9259 22.63-3.7579 34.076-2.795h0.00001c11.317 0.96418 22.49 3.6768 32.791 8.2905 18.715 8.3674 35.306 21.525 47.584 37.919 11.93 15.892 19.933 34.678 24.256 54.215 2.1621 9.7892 3.4154 19.778 3.8152 29.814l-14.233 0.56888c2.4173 9.5451 3.9992 19.532 4.7095 29.75 1.3579 19.973-0.58189 40.813-6.6492 61.232zm12.176-30.17c1.0648-10.188 1.2444-20.317 0.631-30.245-0.48629-7.7814-1.4638-15.443-2.9181-22.902l10.269 0.0653 10.269 0.0653c-1.5552 8.3185-3.6465 16.432-6.2093 24.286-3.2626 10.021-7.3018 19.648-12.041 28.73zm-180.11-160.83c1.4282 5.5408 3.5622 10.639 6.2574 15.134-0.43665 1.0185-0.83954 2.05-1.2071 3.0917-0.48642 1.3771-0.88844 2.7972-1.2058 4.245-1.8653-1.9333-3.5861-4.0988-5.1144-6.4802-1.3516-2.2207-2.577-4.5833-3.6608-7.0704 1.4039-3.0972 3.0552-6.0838 4.9307-8.9203zm-5.8366-3.8602c-2.0805 3.1449-3.9112 6.4549-5.4689 9.8906-2.667 1.005-5.3269 2.2022-7.9573 3.5967-2.9458 1.6289-5.8373 3.5611-8.6259 5.7821 0.60681-2.7064 1.3762-5.3838 2.308-8.0166 0.60677-1.7131 1.2687-3.4043 1.9841-5.0709 5.8827-2.9354 11.873-4.98 17.76-6.182zm-2.7205 23.349c3.3102 4.6296 7.2575 8.4238 11.512 11.271-0.00084 2.5256 0.2406 5.0488 0.7257 7.4959-4.7141-1.9204-9.3159-4.8848-13.475-8.7816 0.0519-2.0806 0.22992-4.1578 0.5337-6.2144 0.18704-1.2662 0.42176-2.5246 0.70408-3.7711zm-6.8301-1.5505c-0.84815 3.7286-1.3207 7.5401-1.4162 11.361-2.1801 2.1007-4.2464 4.4401-6.1572 7.0057-1.9114 2.5656-3.6673 5.3576-5.2259 8.3636-0.93133-4.5887-1.3971-9.2492-1.3986-13.908 4.2528-5.2526 9.0967-9.5597 14.198-12.822zm6.5242 22.623c2.6146 1.5416 5.2939 2.787 7.9876 3.7195 2.3588 0.76524 4.7151 1.2558 6.988 1.4292 0.9209 1.9636 1.9812 3.6665 3.2144 4.9214-4.5072 1.4668-9.8559 1.1464-15.248-0.54096-0.52813-1.2011-0.9997-2.4334-1.4168-3.6851-0.62841-1.911-1.1368-3.8644-1.5255-5.8441zm-6.8717 1.3526c0.44534 2.2573 1.0277 4.4886 1.7474 6.6778 0.47486 1.4612 1.0235 2.9065 1.648 4.324-2.1266 5.729-3.1478 12.351-2.1694 19.75-3.6321-4.0074-6.5257-8.3613-8.7143-12.875 0.63809-3.2299 1.5926-6.2588 2.7731-9.0749 1.3458-3.1679 2.9345-6.1071 4.7152-8.8026z"/>
	<path d="m169.73 163.51q0 3.0145-2.2106 7.6367-2.0097 4.4213-5.0242 9.4454-3.0145 4.8232-6.23 9.2444-3.0145 4.4212-5.0242 7.0338-1.4068 1.8087-3.2154 3.0145-1.6077 1.0048-3.8184 2.0097-2.0097 0.80386-4.6222 0.80386h-73.755q2.2106-4.2203 5.828-9.2444 3.6174-5.2251 8.0386-10.651 4.4213-5.4261 9.4454-10.852 5.0242-5.627 9.8473-10.852 11.254-12.058 24.518-24.317 14.068-12.058 21.101-25.121 7.2348-13.063 7.2348-24.518 0-5.828-3.6174-10.048-3.4164-4.2203-10.45-4.2203-5.4261 0-9.6464 2.2106-4.0193 2.0097-6.8328 4.6222-3.4164 3.0145-5.828 6.6319 0 1.6077 0.6029 1.8087 0.80387 0.20096 1.6077 0.20096 0.40193 0 1.0048-0.40193 0.6029-0.6029 1.2058-1.2058 0.80386-0.80386 1.4068-1.8087 0.20097 0.20097 0.20097 0.6029t-0.6029 0.6029q-0.40193 0-0.40193 0.40193t0.80386 0.6029q1.4068 0 2.0097 0.6029 0.20097 0.40193 0.20097 0.60289l3.6174 2.4116q-0.20097 1.0048-0.40194 1.8087 0 0.6029 0 1.4068 0 2.4116 0.6029 3.6174 0.40193 0.80387 0.80387 1.2058v1.2058q0.40193 0 1.0048 0.60289 0.20096 0.40194 0.20096 0.6029l-1.2058 8.0386q-1.4068 0.80387-1.4068 1.4068 0 0.40193 0.20097 0.60289 0 0.20097 0.20097 0.20097l-1.2058 1.2058q-0.40193 0.40193-0.6029 1.2058t-0.40193 1.6077q-0.20097 0.80387-0.20097 1.8087-1.8087 0.40193-3.0145 1.2058-1.0048 0.80387-1.6077 1.6077-0.80386 0.80387-1.2058 1.8087h-2.2106l-1.2058 2.4116q-1.4068 0-2.2106 0.20097-0.80387 0.20096-1.4068 0.40193-0.80386 0.40193-1.0048 0.6029l-3.4164 2.2106q0-1.6077-0.80386-2.0097-0.80387-0.40193-1.8087-0.40193-0.80386 0-1.6077 0.20097-0.80386 0.20096-1.4068 0.40193-0.80386 0.20096-1.4068 0.40193l3.6174-3.4164q-4.6222-0.40194-7.4358-2.2106-2.6126-1.8087-4.2203-4.0193-1.4068-2.2106-2.0097-4.4212-0.40194-2.2106-0.40194-3.4164 0.20097-13.063 5.2251-21.905 5.0242-9.0435 13.264-14.671 8.2396-5.627 19.092-8.0386t22.709-2.4116q4.8232 0 10.048 1.4068 5.4261 1.2058 9.8473 4.6222 4.6222 3.2155 7.4358 8.8425 3.0145 5.4261 3.0145 14.068 0 9.8473-4.2203 18.087-4.2203 8.0386-11.254 15.072-6.8328 7.0338-15.474 13.465-8.6415 6.23-17.484 12.46-8.6415 6.23-16.881 12.661-8.0386 6.23-13.666 13.465 0.40193 0.40193 2.4116 0.6029 1.6077 0.40193 4.6222 0.60289 3.2154 0 9.0435 0 5.828 0 12.661-0.40193 7.0338-0.6029 14.068-2.0097 7.2348-1.6077 13.666-4.2203 6.6319-2.6126 11.656-7.0338zm-61.09-82.802q-0.80387 1.2058-2.8135 3.8184-1.8087 2.6126-3.8184 5.828-2.0097 3.0145-3.6174 6.6319-1.4068 3.4164-1.4068 6.4309 2.0097 1.8087 4.0193 3.0145 1.6077 1.0048 3.6174 2.0097 2.0097 0.80386 3.8184 0.80386-0.20096 0.20097-0.20096 0.6029-0.20097 0.40193-0.20097 1.4068 0 1.0048 0.40193 1.4068 0.40193-0.40193 0.80387-1.0048 0.80386-1.2058 1.6077-1.2058-1.4068-0.80386-2.4116-2.0097-1.0048-1.0048-2.0097-2.4116-1.0048-1.6077-1.4068-3.8184 0.80386 1.6077 1.8087 3.0145 1.0048 1.2058 2.2106 2.4116t3.0145 1.6077q-1.4068-1.0048-2.4116-2.0097-2.2106-2.2106-2.2106-3.8184 1.0048 1.4068 1.8087 2.4116 1.8087 2.2106 2.8135 2.2106-0.40193-0.80387-0.6029-1.6077 0-1.0048 0-3.0145 0-1.0048-0.6029-1.8087-0.40193-0.80386-2.2106-1.2058-0.80387 0-1.4068-0.40193-1.2058-0.40194-1.2058-1.6077 0-0.40194 0.20096-0.80387 0 1.6077 1.8087 1.8087 2.0097 0.20096 4.4212 0.20096 1.4068 0 1.4068-0.80386 0-0.6029-0.80386-0.6029-0.6029-0.20097-1.6077-0.20097-0.80386-0.20096-1.8087-0.60289-0.80387-0.6029-1.2058-2.0097 0-1.4068 0.6029-3.4164 0.6029-2.2106 1.4068-4.4212 0.80387-2.4116 1.6077-4.2203 0.80386-1.8087 1.2058-2.6126h-4.6222zm-10.656 28.332q0 0.80386 0 2.2106 0.20096 1.2058 0.80386 2.4116t1.6077 2.2106q1.0048 0.80387 2.8135 0.80387 1.6077 0 5.2251-1.6077-0.6029 0-1.2058-0.40193-1.0048-0.6029-1.0048-3.2155-2.0097-0.20097-3.6174-0.80386-1.6077-0.40194-3.0145-1.0048-1.2058-0.6029-1.6077-1.6077v1.0048zm24.518 3.6174h-1.2058q-1.4068 0-3.4164 2.0097-2.0097 1.8087-2.0097 3.4164 0 0.80387 0.80386 0.80387 1.4068 0 3.0145-0.80387 1.6077-0.80386 2.8135-1.8087v-3.6174zm-1.2058-2.2106q0.80386-0.40193 1.0048-0.80386 0.20097-0.6029 0.20097-1.0048 0.20096-0.40194 0.60289-0.80387 0.40194-0.6029 1.6077-1.0048v-4.6222q0-0.40193-0.6029-0.40193-0.40193 0-0.60289 0.20097 0 0-0.40194 0-0.40193 0.20096-0.60289 0.20096 0 1.0048 0.20096 1.8087 0.40193 1.8087 0.80387 1.8087l-2.2106 4.6222zm5.828-8.2396q-0.40194 0.40193-0.6029 1.2058 0 0.80386 0 1.6077 0 1.8087-0.6029 1.8087 0 0.6029-1.2058 2.2106-0.6029 0.80386-1.2058 1.4068h1.2058l1.2058-0.80386q1.2058-0.80387 1.2058-1.6077 0.40193-0.40193 0.40193-1.8087 0-0.40193-0.20097-1.0048 0-0.6029 0-1.0048-0.20096-0.6029-0.20096-0.80386 0.60289-0.6029 0.60289-0.80387 0-0.40193-0.60289-0.40193zm-3.6174-9.2444-1.0048 1.2058 1.0048 1.2058h-1.0048q0 0.40193 0.20096 0.60289 0.20097 0.6029 0.80387 0.6029l1.2058 1.0048q-0.40193 0-0.6029 0.20097-0.60289 0.40193-0.60289 1.0048h2.4116q0.40193-0.40193 0.40193-1.6077 0-1.0048-0.6029-2.2106-0.40193-1.4068-1.0048-2.0097 0-1.4068-0.6029-1.4068-0.40193 0-1.6077 1.4068h1.0048zm-8.6415 1.8087 2.8135 1.8087q0-1.0048 0.6029-1.6077 0.20096-0.40193 0.6029-0.80386v1.2058h1.2058q-0.80386 0-1.6077 1.2058-0.40193 0.6029-0.80386 1.0048l1.2058 1.2058h2.4116l1.2058-2.2106-2.4116-2.4116q1.4068-0.6029 1.4068-2.2106 0-0.20096-0.20097-0.40193 0-0.20097 0-0.40193v-0.40193q0-0.6029-1.2058-1.0048-0.6029-0.20097-1.2058-0.20097v1.2058h0.80386q0.6029 0 0.80387 0.60289l-5.627 3.4164zm2.6126 15.273q-0.20096 0-1.2058 0.6029-1.0048 0.40193-0.80387 0.80386v0.40193q0 0.20097 0.40194 0.20097 0.20096 0 0.80386-0.6029 0.40193 0 0.80386-0.40193 0.20097-0.20097 0.20097-0.6029 1.0048-2.0097 2.2106-3.2155l1.4068-1.4068q0-1.6077-0.6029-3.4164-0.40193-1.8087-2.6126-1.8087-1.2058 0-1.8087 1.4068l2.6126 0.20096-3.4164 1.2058 3.4164 1.2058h-2.2106q0 1.0048 0.6029 1.0048 0.40193 0 0.6029 0 0.20096-0.20097 0.60289-0.20097 0.80387 0 0.80387 0.80386 0 0.6029-0.80387 0.6029h-0.80386q-0.40193 0.40193-0.40193 1.2058 0 0.6029-0.6029 0.6029h-1.0048q-0.20097 0-0.40193-0.20097 0.6029 0 0.6029 0.80386 0 0.20097-0.20097 0.40194l-0.20097 0.20096q0 0.20097 1.0048 0.20097h1.0048zm-8.4406 12.46q1.8087 0 3.6174-1.4068 2.0097-1.4068 2.0097-3.6174 0-1.0048-0.40193-1.2058 0-1.4068-0.20097-1.4068t-0.40193 0.20097q0 0-0.20097 0h-0.40193q0 0.40193 0.20097 1.0048 0.40193 1.2058 0.40193 1.6077 0 0.80386-0.6029 0.80386h-4.6222l0.80387 0.80387q0.80386 1.2058 0.80386 1.8087 0 0.40193-0.6029 0.80387-0.40193 0.40193-0.40193 0.60289zm40.997-53.658q2.0097 1.0048 3.6174 3.8184 1.4068 2.4116 2.6126 7.0338 1.4068 4.4213 1.8087 12.058 1.0048-2.6126 3.4164-3.8184 2.4116-1.4068 4.2203-1.4068 2.6126 0 4.2203 0.80386 1.6077 0.6029 3.2154 3.4164-1.0048-6.4309-4.8232-10.651-3.6174-4.2203-7.6367-6.8328-4.8232-2.8135-10.651-4.4212zm8.0386 28.738q-0.80387 2.2106-3.0145 7.4358-2.2106 5.0242-6.6319 11.857-4.2203 6.6319-11.254 14.671-6.8328 7.8377-17.082 15.675 13.264-8.0386 24.317-16.278 4.6222-3.6174 9.2444-7.4358 4.8232-4.0193 8.6415-8.2396 4.0193-4.2203 6.8328-8.2396 2.8135-4.2203 4.0193-8.2396-1.6077 1.8087-3.6174 3.2155-1.8087 1.4068-4.4212 1.4068-5.0242 0-7.0338-5.828zm-26.32 100.48q5.2251 0 10.048-3.6174 4.8232-3.8184 8.8425-8.4406 4.6222-5.2251 8.6416-12.058-3.8184 2.4116-7.4358 4.4212-3.2155 1.6077-6.8328 3.0145-3.6174 1.2058-6.6319 1.2058-6.8328 0-11.656-0.6029-4.6222-0.6029-9.0435-0.6029-5.0242 0-9.4454 0.6029-4.2203 0.6029-7.6367 1.4068-3.8184 0.80387-7.2348 2.0097h18.891q5.828 0 10.852 1.8087 5.0242 1.8087 9.4454 1.8087 5.2251 0 7.8377-1.2058 2.8135-1.4068 3.8184-2.4116-0.40193 0.40193-1.6077 1.8087-1.0048 1.2058-2.6126 2.6126-1.4068 1.4068-3.4164 2.4116-2.0097 1.0048-4.0193 1.0048-3.4164 0-9.8473-1.4068-6.23-1.6077-16.881-1.6077-5.828 0-13.666 1.2058-7.6367 1.0048-14.671 6.6319 2.0097-0.80386 4.6222-1.6077 2.2106-0.6029 5.2251-1.2058 3.2155-0.6029 7.2348-0.6029 8.8425 0 17.685 1.8087 8.8425 1.6077 19.494 1.6077zm26.126-96.464q0.6029 1.4068 1.4068 2.2106 0.80386 0.80386 2.0097 1.4068 1.2058 0.6029 2.8135 0.6029 1.0048 0 2.6126-0.6029 1.6077-0.6029 3.0145-1.4068-4.2203 5.4261-9.4454 10.852-4.6222 4.6222-11.053 10.45-6.4309 5.828-14.671 11.254 6.029-6.23 11.053-12.46 4.2203-5.2251 7.8377-11.254 3.6174-6.029 4.4212-11.053zm12.661-15.474q-1.4068-1.4068-4.0193-1.4068-2.0097 0-4.0193 0.80387-2.0097 0.80386-3.0145 1.8087-0.40193-3.4164-1.2058-7.6367-0.6029-4.4212-3.2155-7.8377 3.2155 1.6077 6.029 3.8184 2.4116 1.8087 5.0242 4.4212 2.6126 2.6126 4.4213 6.029z"/>
</svg>
